<svg xmlns="http://www.w3.org/2000/svg" width="620" height="500" viewBox="0 0 620 500">
    <path fill="#ebd463" fill-rule="evenodd" d="M1354.13 1633.874l-.042 5.282-4.8.29.125-5.137 4.713-.436zm0-416.184l-.042-5.282-4.8-.29.125 5.136 4.713.436zm-2.294-12.115a.857.857 0 0 1-.183-.714 1.81 1.81 0 0 1 1.142-1.563c1.543-.484 3.379 1.793 2.252 4.749s-4.588 2.133-5.3 2.278a3.911 3.911 0 0 0-1.878.63c-.376.387-.5.775-.417 1.938s.292 4.749-2.044 5.912-4.171-.049-3.754-3.344c.12-.951.824-1.132 1.272-.967s.637.676.563 1.305c-.124 1.066.5 1.647 1.21 1.26s1.376-1.6.417-3.2-5.465-6.348-6.048-7.85a3.278 3.278 0 0 1 .584-3.779 4.076 4.076 0 0 1 5.465.484c1.876 2.035 3.045 4.119 5.589 4.506s3.17-.242 3.045-.921-.751-.34-1.084-.436-.835-.292-.835-.292zm-13.94-3.961a1.052 1.052 0 1 1 .9-1.041.978.978 0 0 1-.9 1.041zm-2.61-1.972a1.189 1.189 0 1 1 1.013-1.176 1.106 1.106 0 0 1-1.013 1.176zm-3.2-2.192a2.074 2.074 0 1 1 1.765-2.051 1.928 1.928 0 0 1-1.765 2.051zm-.131-5.963s-2.985 1.631-3.482 3.79a.9.9 0 0 1-.905.79c-.814 0-3.437-.106-5.155 1.157a7.574 7.574 0 0 0-2.94 4.052c-.814 1.947-1.357-2.21-.769-4.052s1.176-2 .632-2.211-1.176 1.211-1.763 1.369-.814-1.052.724-2.421 4.929-.737 5.561-.631 2.036.21 1.991-.421-2.578-1.631-7.642.158a18.06 18.06 0 0 1-2.587.765c-1.7.278-.723-1.82.054-2.765a5.7 5.7 0 0 1 5.381-1.79c2.533.369 3.527.526 3.8.264 0 0-1.4-4.474-9.271-5.632 0 0-.769-5-1.311-6.684 0 0 5.473.947 6.6.579a22.873 22.873 0 0 0 1.733 6.252c.876 1.878 2.241 3.593 3.92 4.169 0 0 .542-.21.362-1s-1.539-4.842-.95-7 1.629-3.106 3.03-3.368a.686.686 0 0 1 .757.353c.268.555-.317 1.82-.486 2.173a12.427 12.427 0 0 0-1 6.843c.186 1.361.5 1.675.865 1.877a.794.794 0 0 0 1.171-.824c-.181-1-.815-3.79-.362-5.474s1.176-2.789 1.673-2.526c.135.474-.18 1.158-.135 1.737s.679.158 1.086-.1 3.075-1.421 3.572-.369-.5 1.474-.949 2a8.14 8.14 0 0 0-2.759 5 13.259 13.259 0 0 0 .032 2.622c.073 1.024-.484 1.326-.484 1.326zm-10.627-3.473a9.164 9.164 0 0 0-4.568-.054c-1.809.685-2.487-.474-.769-2a3.185 3.185 0 0 1 2.133-.446c1.676.174 3.743 1.094 3.79 1.814a.59.59 0 0 1-.587.685zm3.347-3.737s-1 .789-1.4-2.368-.452-4.053.045-4.316a.673.673 0 0 1 .769.789 21.641 21.641 0 0 0 .09 3.368c.136 1.106.634 1.737.634 2.211s-.135.316-.135.316zm35.6 7.15s-.378 1.611-1.677 1.513a7.078 7.078 0 0 1-2.893-.684.872.872 0 0 0-.717-.064 7.664 7.664 0 0 0-2.092-3.205c-2.517-2.489-6.668-.684-7.591 1.708a3.122 3.122 0 0 0 2.18 4.344 2.287 2.287 0 0 0 2.558-1.366c.168-.684-.964-.927-.964-.927s-1.677-.049-2.055-.928.713-1.659 2.1-2.147 4.529-.147 4.319 4.489-4.025 5.466-5.955 5.466-2.013-3.416-2.013-3.416-1.342.048-2.265.048-2.263.684-2.306-2.977.587-4.684 1.3-5.563 2.139-.635 2.641-.585.922.1.922-.147a15.884 15.884 0 0 0-2.558-3.417 63.512 63.512 0 0 1-3.984-5.368c-.209-.293-.88.1-.88.684s.335 2.733-.587 9.956c-.49 3.837-.428 6.165.895 8.193a9.226 9.226 0 0 0 6.024 3.909c5.619.927 9.057-1.562 10.023-4.392a9.889 9.889 0 0 0 .469-1.946c.052-.032.1-.067.159-.1a2.692 2.692 0 0 1 1.719-.342c.461.1 1.971 1.025 3.1.586a2.784 2.784 0 0 0 1.971-2.831c-.168-1.366-.5-1.562-1.007-1.415s-.838.927-.838.927zm-16.027-8.914a52.276 52.276 0 0 0 5.473-.245c.632-.218 1.147-.626.959-1.415s-.866-1.062-1.731-.981a12.318 12.318 0 0 1-1.964-.027 1.142 1.142 0 0 1 .491-.817c.468-.327 1.287-1.17 1.239-1.8s-.865-1.035-1.918-.191a9.657 9.657 0 0 0-2.549 3.539c-.283.957-.375 1.734 0 1.932zm8.1-5.106s.26.485 1.408.668 3.34.425 3.705 1.761.26 4.008 2.035 4.008a2.035 2.035 0 0 0 1.931-2.612 11.907 11.907 0 0 0-1.565-1.761c-.627-.547-.521-1.7-.1-1.761a4.692 4.692 0 0 1 2.712 1.64 6.652 6.652 0 0 1 .731 2.672c0 .729 0 5.343 2.765 6.619s4.645.729 5.114-1.943a3.277 3.277 0 0 0-.191-1.8 13.957 13.957 0 0 0-.749-1.725s.313-.911.679-.972.991-.364 1.879 1.335a19.465 19.465 0 0 1 1.669 4.8 2.525 2.525 0 0 0 2.661 2.065c1.148-.122 1.721-1.275 2.4-1.578a1.885 1.885 0 0 1 2.5.364c1.044 1.032 2.452 2.975 3.444 3.218s.887-.972.834-1.458 0-1.58.417-1.64.783.182 1.252.668a3.654 3.654 0 0 0 3.5 1.7c2.3-.182 3.026-1.214 4.174-1.519a3.859 3.859 0 0 1 1.513-.182h453.482a3.852 3.852 0 0 1 1.513.182c1.148.3 1.879 1.336 4.174 1.519a3.653 3.653 0 0 0 3.5-1.7c.469-.485.835-.729 1.252-.668s.469 1.153.417 1.64-.156 1.7.835 1.458 2.4-2.186 3.444-3.218a1.885 1.885 0 0 1 2.5-.364c.679.3 1.253 1.456 2.4 1.578a2.523 2.523 0 0 0 2.66-2.065 19.413 19.413 0 0 1 1.671-4.8c.886-1.7 1.513-1.4 1.877-1.335s.679.972.679.972a13.919 13.919 0 0 0-.748 1.725 3.256 3.256 0 0 0-.191 1.8c.469 2.672 2.348 3.218 5.113 1.943s2.765-5.89 2.765-6.619a6.669 6.669 0 0 1 .731-2.672 4.694 4.694 0 0 1 2.713-1.64c.417.061.521 1.214-.105 1.761a11.893 11.893 0 0 0-1.565 1.761 2.035 2.035 0 0 0 1.931 2.612c1.775 0 1.67-2.672 2.036-4.008s2.556-1.578 3.7-1.761 1.409-.668 1.409-.668-1.215-.373-3.333-.843c-.962-.213-2.029-.447-3.4-.675-4.382-.729-10.957 2.43-13.251 4.069s-10.488 6.74-14.61 8.319-5.792.789-6.261.3a14.055 14.055 0 0 1-1.617-2.186c-.521-.85-1.513-.06-1.513-.06-1.252 1.4-2.034 1.335-2.034 1.335h-450.879s-.781.061-2.033-1.335c0 0-.992-.79-1.513.06a13.977 13.977 0 0 1-1.617 2.186c-.469.486-2.139 1.275-6.261-.3s-12.313-6.68-14.609-8.319-8.87-4.8-13.253-4.069c-1.37.228-2.436.462-3.4.675-2.118.47-3.332.843-3.332.843zm20.515.2s.057.456 1.008 1.172 11.7 8.6 25.573 3.907h448.718c13.878 4.69 24.622-3.19 25.573-3.907s1.007-1.172 1.007-1.172a1.785 1.785 0 0 0-.951.2 39.294 39.294 0 0 1-5.876 1.694c-3.582.847-3.582-.586-4.029-1.433a1.889 1.889 0 0 0-2.574-.912c-1.064.586-.447 1.693-.5 2.54s-.672.781-1.12.455-1.175-2.28-2.461-1.954-1.4 2.605-2.015 2.931-.951-.717-1.176-1.3-.672-2.54-1.344-2.6-1.622.39-2.518 1.693a3.832 3.832 0 0 1-1.735 1.561h-449.282a3.831 3.831 0 0 1-1.735-1.561c-.895-1.3-1.846-1.759-2.518-1.693s-1.12 2.018-1.343 2.6-.559 1.628-1.174 1.3-.728-2.605-2.015-2.931-2.015 1.628-2.462 1.954-1.064.391-1.119-.455.56-1.954-.5-2.54a1.889 1.889 0 0 0-2.574.912c-.448.847-.448 2.279-4.029 1.433a39.337 39.337 0 0 1-5.876-1.694 1.785 1.785 0 0 0-.951-.2zm-43.7 46.732s1.582-.383 1.486-1.7a7.372 7.372 0 0 0-.671-2.938.919.919 0 0 1-.063-.729 7.514 7.514 0 0 1-3.146-2.127c-2.444-2.556-.672-6.774 1.676-7.712a3.055 3.055 0 0 1 4.263 2.216 2.333 2.333 0 0 1-1.342 2.6c-.67.171-.91-.979-.91-.979s-.047-1.7-.91-2.089-1.629.725-2.107 2.132-.145 4.6 4.407 4.387 5.365-4.089 5.365-6.05-3.354-2.045-3.354-2.045.049-1.363.049-2.3.67-2.3-2.922-2.343-4.6.595-5.461 1.32-.623 2.172-.575 2.685.1.937-.145.937a15.664 15.664 0 0 1-3.352-2.6 62.455 62.455 0 0 0-5.269-4.048c-.288-.213.1-.894.671-.894s2.683.34 9.772-.6c3.766-.5 6.053-.434 8.042.909a9.4 9.4 0 0 1 3.838 6.121c.91 5.709-1.533 9.2-4.311 10.182a9.34 9.34 0 0 1-1.91.477l-.1.163a2.815 2.815 0 0 0-.335 1.747c.1.468 1.006 2 .574 3.152a2.739 2.739 0 0 1-2.778 2c-1.341-.17-1.533-.511-1.39-1.023s.91-.852.91-.852zm-8.75-16.283a55.152 55.152 0 0 1-.24 5.56c-.214.642-.614 1.166-1.39.975s-1.042-.88-.961-1.759a12.907 12.907 0 0 0-.028-2 1.109 1.109 0 0 0-.8.5c-.32.475-1.149 1.306-1.764 1.26s-1.015-.88-.186-1.95a9.485 9.485 0 0 1 3.473-2.59c.94-.288 1.7-.38 1.9 0zm-5.011 8.224s.478.266.655 1.432.417 3.393 1.729 3.765 3.933.265 3.933 2.067-2.026 2.385-2.563 1.961a11.837 11.837 0 0 1-1.728-1.59c-.536-.637-1.669-.531-1.728-.106a4.812 4.812 0 0 0 1.609 2.756 6.372 6.372 0 0 0 2.623.742c.714 0 5.245 0 6.5 2.81s.716 4.718-1.906 5.2a3.109 3.109 0 0 1-1.763-.194 13.449 13.449 0 0 1-1.695-.76s-.894.317-.954.688-.357 1.006 1.311 1.91a18.646 18.646 0 0 0 4.71 1.694 2.554 2.554 0 0 1 2.025 2.705c-.119 1.165-1.251 1.748-1.549 2.438a1.964 1.964 0 0 0 .357 2.544c1.014 1.061 2.921 2.49 3.159 3.5s-.954.9-1.431.848-1.549 0-1.609.424.179.8.657 1.272a3.742 3.742 0 0 1 1.668 3.552c-.178 2.332-1.192 3.075-1.49 4.242a4.016 4.016 0 0 0-.178 1.537v328.142a4.021 4.021 0 0 0 .178 1.537c.3 1.167 1.312 1.909 1.49 4.241a3.742 3.742 0 0 1-1.668 3.552c-.478.478-.716.85-.657 1.273s1.133.477 1.609.424 1.669-.16 1.431.848-2.146 2.438-3.159 3.5a1.964 1.964 0 0 0-.357 2.544c.3.69 1.43 1.272 1.549 2.438a2.553 2.553 0 0 1-2.025 2.7 18.649 18.649 0 0 0-4.71 1.7c-1.668.9-1.37 1.538-1.311 1.909s.954.689.954.689a13.428 13.428 0 0 1 1.695-.76 3.109 3.109 0 0 1 1.763-.194c2.622.478 3.158 2.386 1.906 5.2s-5.781 2.809-6.5 2.809a6.374 6.374 0 0 0-2.623.743 4.809 4.809 0 0 0-1.609 2.756c.059.424 1.192.531 1.728-.106a11.837 11.837 0 0 1 1.728-1.59c.536-.423 2.563.16 2.563 1.961s-2.622 1.7-3.933 2.067-1.55 2.6-1.729 3.765-.655 1.431-.655 1.431-.366-1.234-.827-3.385c-.21-.978-.44-2.063-.664-3.453-.714-4.455 2.385-11.133 3.994-13.466s6.616-10.655 8.165-14.843.774-5.884.3-6.362a13.88 13.88 0 0 0-2.146-1.643c-.835-.531-.06-1.537-.06-1.537 1.371-1.273 1.311-2.067 1.311-2.067v-325.505s.06-.793-1.311-2.066c0 0-.775-1.008.06-1.537a13.894 13.894 0 0 0 2.146-1.644c.476-.477 1.251-2.172-.3-6.361s-6.556-12.511-8.165-14.843-4.708-9.012-3.994-13.466c.223-1.39.453-2.475.664-3.453.46-2.151.827-3.385.827-3.385zm.2 20.844s.447.058 1.15 1.023a29.874 29.874 0 0 1 3.836 25.983v323.3a29.877 29.877 0 0 1-3.836 25.983c-.7.965-1.15 1.022-1.15 1.022a1.866 1.866 0 0 1 .191-.967 40.531 40.531 0 0 0 1.662-5.969c.831-3.638-.574-3.638-1.406-4.094a1.947 1.947 0 0 1-.895-2.616c.574-1.079 1.661-.455 2.492-.511s.767-.682.447-1.137-2.237-1.195-1.918-2.5 2.557-1.421 2.877-2.047-.7-.967-1.279-1.194-2.494-.683-2.557-1.364.384-1.649 1.663-2.559a3.865 3.865 0 0 0 1.533-1.763v-323.866a3.871 3.871 0 0 0-1.533-1.764c-1.279-.909-1.727-1.875-1.663-2.558s1.982-1.137 2.557-1.365 1.6-.568 1.279-1.193-2.557-.74-2.877-2.047 1.6-2.047 1.918-2.5.384-1.079-.447-1.136-1.918.568-2.492-.512a1.946 1.946 0 0 1 .895-2.615c.831-.455 2.237-.455 1.406-4.094a40.495 40.495 0 0 0-1.662-5.969 1.869 1.869 0 0 1-.191-.968zm577.878-19.434l.041-5.282 4.8-.29-.125 5.136-4.713.436zm2.293-12.115a.852.852 0 0 0 .183-.714 1.81 1.81 0 0 0-1.142-1.563c-1.543-.484-3.378 1.793-2.252 4.749s4.588 2.133 5.3 2.278a3.911 3.911 0 0 1 1.876.63c.375.387.5.775.417 1.938s-.292 4.749 2.044 5.912 4.171-.049 3.755-3.344c-.12-.951-.825-1.132-1.272-.967s-.638.676-.564 1.305c.125 1.066-.5 1.647-1.209 1.26s-1.377-1.6-.417-3.2 5.465-6.348 6.048-7.85a3.282 3.282 0 0 0-.584-3.779 4.076 4.076 0 0 0-5.465.484c-1.877 2.035-3.045 4.119-5.589 4.506s-3.171-.242-3.045-.921.75-.34 1.084-.436.833-.292.833-.292zm13.941-3.961a1.052 1.052 0 1 0-.9-1.041.978.978 0 0 0 .9 1.041zm2.61-1.972a1.19 1.19 0 1 0-1.012-1.176 1.105 1.105 0 0 0 1.012 1.176zm3.2-2.192a2.074 2.074 0 1 0-1.765-2.051 1.928 1.928 0 0 0 1.765 2.051zm.131-5.963s2.985 1.631 3.483 3.79a.9.9 0 0 0 .9.79c.814 0 3.437-.106 5.156 1.157a7.577 7.577 0 0 1 2.939 4.052c.815 1.947 1.357-2.21.77-4.052s-1.177-2-.634-2.211 1.176 1.211 1.764 1.369.813-1.052-.725-2.421-4.928-.737-5.562-.631-2.036.21-1.99-.421 2.577-1.631 7.643.158a18.059 18.059 0 0 0 2.586.765c1.7.278.724-1.82-.054-2.765a5.7 5.7 0 0 0-5.381-1.79c-2.532.369-3.527.526-3.8.264 0 0 1.4-4.474 9.271-5.632 0 0 .769-5 1.311-6.684 0 0-5.471.947-6.6.579a22.9 22.9 0 0 1-1.734 6.252c-.875 1.878-2.241 3.593-3.919 4.169 0 0-.543-.21-.362-1s1.537-4.842.949-7-1.628-3.106-3.03-3.368a.686.686 0 0 0-.757.353c-.268.555.317 1.82.486 2.173a12.426 12.426 0 0 1 1 6.843c-.186 1.361-.5 1.675-.865 1.877a.793.793 0 0 1-1.17-.824c.18-1 .814-3.79.362-5.474s-1.176-2.789-1.674-2.526c-.135.474.182 1.158.136 1.737s-.679.158-1.086-.1-3.076-1.421-3.573-.369.5 1.474.95 2a8.145 8.145 0 0 1 2.758 5 13.176 13.176 0 0 1-.032 2.622c-.073 1.024.484 1.326.484 1.326zm10.627-3.473a9.167 9.167 0 0 1 4.568-.054c1.809.685 2.487-.474.769-2a3.189 3.189 0 0 0-2.134-.446c-1.676.174-3.743 1.094-3.791 1.814a.59.59 0 0 0 .587.685zm-3.346-3.737s.994.789 1.4-2.368.453-4.053-.045-4.316a.673.673 0 0 0-.769.789 21.581 21.581 0 0 1-.09 3.368c-.135 1.106-.633 1.737-.633 2.211s.136.316.136.316zm-35.6 7.15s.378 1.611 1.677 1.513a7.075 7.075 0 0 0 2.894-.684.871.871 0 0 1 .717-.064 7.655 7.655 0 0 1 2.094-3.205c2.516-2.489 6.667-.684 7.589 1.708a3.122 3.122 0 0 1-2.18 4.344 2.287 2.287 0 0 1-2.558-1.366c-.168-.684.964-.927.964-.927s1.677-.049 2.056-.928-.714-1.659-2.1-2.147-4.528-.147-4.319 4.489 4.025 5.466 5.955 5.466 2.013-3.416 2.013-3.416 1.342.048 2.265.048 2.265.684 2.306-2.977-.587-4.684-1.3-5.563-2.14-.635-2.643-.585-.923.1-.923-.147a15.887 15.887 0 0 1 2.558-3.417 63 63 0 0 0 3.984-5.368c.209-.293.881.1.881.684s-.335 2.733.586 9.956c.49 3.837.429 6.165-.895 8.193a9.225 9.225 0 0 1-6.024 3.909c-5.618.927-9.057-1.562-10.021-4.392a9.719 9.719 0 0 1-.469-1.946l-.16-.1a2.7 2.7 0 0 0-1.72-.342c-.461.1-1.97 1.025-3.1.586a2.785 2.785 0 0 1-1.971-2.831c.168-1.366.5-1.562 1.007-1.415s.838.927.838.927zm16.027-8.914a52.278 52.278 0 0 1-5.473-.245c-.631-.218-1.146-.626-.958-1.415s.865-1.062 1.731-.981a12.317 12.317 0 0 0 1.964-.027 1.142 1.142 0 0 0-.491-.817c-.467-.327-1.286-1.17-1.239-1.8s.866-1.035 1.918-.191a9.644 9.644 0 0 1 2.549 3.539c.283.957.375 1.734 0 1.932zm15.093 41.826s-1.581-.383-1.485-1.7a7.39 7.39 0 0 1 .67-2.938.909.909 0 0 0 .063-.729 7.523 7.523 0 0 0 3.147-2.127c2.443-2.556.671-6.774-1.677-7.712a3.056 3.056 0 0 0-4.264 2.216 2.336 2.336 0 0 0 1.342 2.6c.671.171.91-.979.91-.979s.049-1.7.91-2.089 1.629.725 2.109 2.132.143 4.6-4.408 4.387-5.365-4.089-5.365-6.05 3.354-2.045 3.354-2.045-.047-1.363-.047-2.3-.672-2.3 2.921-2.343 4.6.595 5.461 1.32.623 2.172.574 2.685-.1.937.145.937a15.637 15.637 0 0 0 3.352-2.6 62.493 62.493 0 0 1 5.269-4.048c.288-.213-.095-.894-.671-.894s-2.682.34-9.772-.6c-3.766-.5-6.053-.434-8.042.909a9.4 9.4 0 0 0-3.837 6.121c-.911 5.709 1.532 9.2 4.311 10.182a9.326 9.326 0 0 0 1.909.477l.1.163a2.808 2.808 0 0 1 .335 1.747c-.095.468-1.006 2-.575 3.152a2.739 2.739 0 0 0 2.778 2c1.342-.17 1.533-.511 1.389-1.023s-.91-.852-.91-.852zm8.75-16.283a55.075 55.075 0 0 0 .24 5.56c.214.642.615 1.166 1.389.975s1.042-.88.962-1.759a12.982 12.982 0 0 1 .026-2 1.109 1.109 0 0 1 .8.5c.322.475 1.149 1.306 1.764 1.26s1.015-.88.188-1.95a9.5 9.5 0 0 0-3.474-2.59c-.94-.288-1.7-.38-1.9 0zm5.011 8.224s-.476.266-.656 1.432-.417 3.393-1.728 3.765-3.934.265-3.934 2.067 2.026 2.385 2.563 1.961a11.837 11.837 0 0 0 1.728-1.59c.536-.637 1.669-.531 1.728-.106a4.8 4.8 0 0 1-1.609 2.756 6.373 6.373 0 0 1-2.622.742c-.716 0-5.245 0-6.5 2.81s-.715 4.718 1.907 5.2a3.1 3.1 0 0 0 1.762-.194 13.426 13.426 0 0 0 1.695-.76s.894.317.954.688.357 1.006-1.311 1.91a18.652 18.652 0 0 1-4.709 1.694 2.554 2.554 0 0 0-2.026 2.705c.119 1.165 1.252 1.748 1.549 2.438a1.964 1.964 0 0 1-.357 2.544c-1.013 1.061-2.921 2.49-3.159 3.5s.955.9 1.431.848 1.549 0 1.609.424-.179.8-.655 1.272a3.74 3.74 0 0 0-1.669 3.552c.179 2.332 1.192 3.075 1.49 4.242a4.026 4.026 0 0 1 .179 1.537v328.142a4.032 4.032 0 0 1-.179 1.537c-.3 1.167-1.311 1.909-1.49 4.241a3.74 3.74 0 0 0 1.669 3.552c.476.478.714.85.655 1.273s-1.133.477-1.609.424-1.669-.16-1.431.848 2.147 2.438 3.159 3.5a1.964 1.964 0 0 1 .357 2.544c-.3.69-1.43 1.272-1.549 2.438a2.553 2.553 0 0 0 2.026 2.7 18.656 18.656 0 0 1 4.709 1.7c1.668.9 1.371 1.538 1.311 1.909s-.954.689-.954.689a13.4 13.4 0 0 0-1.695-.76 3.1 3.1 0 0 0-1.762-.194c-2.623.478-3.159 2.386-1.907 5.2s5.781 2.809 6.5 2.809a6.375 6.375 0 0 1 2.622.743 4.8 4.8 0 0 1 1.609 2.756c-.059.424-1.192.531-1.728-.106a11.837 11.837 0 0 0-1.728-1.59c-.536-.423-2.563.16-2.563 1.961s2.622 1.7 3.934 2.067 1.549 2.6 1.728 3.765.656 1.431.656 1.431.366-1.234.828-3.385c.209-.978.439-2.063.663-3.453.715-4.455-2.384-11.133-3.993-13.466s-6.616-10.655-8.166-14.843-.775-5.884-.3-6.362a13.813 13.813 0 0 1 2.145-1.643c.833-.531.059-1.537.059-1.537-1.371-1.273-1.311-2.067-1.311-2.067v-325.505s-.06-.793 1.311-2.066c0 0 .775-1.008-.059-1.537a13.827 13.827 0 0 1-2.145-1.644c-.478-.477-1.252-2.172.3-6.361s6.557-12.511 8.166-14.843 4.708-9.012 3.993-13.466c-.223-1.39-.453-2.475-.663-3.453-.461-2.151-.828-3.385-.828-3.385zm-.2 20.844s-.447.058-1.151 1.023a29.88 29.88 0 0 0-3.836 25.983v323.3a29.882 29.882 0 0 0 3.836 25.983c.7.965 1.151 1.022 1.151 1.022a1.861 1.861 0 0 0-.192-.967 40.846 40.846 0 0 1-1.662-5.969c-.831-3.638.576-3.638 1.407-4.094a1.949 1.949 0 0 0 .895-2.616c-.576-1.079-1.662-.455-2.493-.511s-.768-.682-.447-1.137 2.237-1.195 1.918-2.5-2.557-1.421-2.876-2.047.7-.967 1.277-1.194 2.493-.683 2.557-1.364-.383-1.649-1.661-2.559a3.865 3.865 0 0 1-1.534-1.763v-323.866a3.87 3.87 0 0 1 1.534-1.764c1.279-.909 1.726-1.875 1.661-2.558s-1.981-1.137-2.557-1.365-1.6-.568-1.277-1.193 2.556-.74 2.876-2.047-1.6-2.047-1.918-2.5-.384-1.079.447-1.136 1.918.568 2.493-.512a1.948 1.948 0 0 0-.895-2.615c-.831-.455-2.238-.455-1.407-4.094a40.809 40.809 0 0 1 1.662-5.969 1.864 1.864 0 0 0 .192-.968zm-38.539 396.75l.041 5.282 4.8.29-.125-5.137-4.713-.436zm2.293 12.114a.855.855 0 0 1 .183.715 1.809 1.809 0 0 1-1.142 1.563c-1.543.485-3.378-1.793-2.252-4.749s4.588-2.132 5.3-2.277a3.923 3.923 0 0 0 1.876-.63c.375-.388.5-.775.417-1.938s-.292-4.75 2.044-5.913 4.171.049 3.755 3.344c-.12.951-.825 1.132-1.272.967s-.638-.676-.564-1.305c.125-1.066-.5-1.648-1.209-1.26s-1.377 1.6-.417 3.2 5.465 6.349 6.048 7.85a3.284 3.284 0 0 1-.584 3.78 4.076 4.076 0 0 1-5.465-.484c-1.877-2.035-3.045-4.119-5.589-4.506s-3.171.242-3.045.921.75.34 1.084.436.833.29.833.29zm13.941 3.962a1.052 1.052 0 1 1-.9 1.041.978.978 0 0 1 .9-1.041zm2.61 1.971a1.19 1.19 0 1 1-1.012 1.177 1.106 1.106 0 0 1 1.012-1.177zm3.2 2.193a2.074 2.074 0 1 1-1.765 2.05 1.928 1.928 0 0 1 1.765-2.05zm.131 5.963s2.985-1.631 3.483-3.79a.9.9 0 0 1 .9-.79c.814 0 3.437.106 5.156-1.157a7.584 7.584 0 0 0 2.939-4.053c.815-1.947 1.357 2.211.77 4.053s-1.177 2-.634 2.21 1.176-1.21 1.764-1.367.813 1.052-.725 2.421-4.928.736-5.562.631-2.036-.211-1.99.421 2.577 1.631 7.643-.158a18.227 18.227 0 0 1 2.586-.765c1.7-.276.724 1.821-.054 2.766a5.7 5.7 0 0 1-5.381 1.79c-2.532-.369-3.527-.527-3.8-.264 0 0 1.4 4.473 9.271 5.632 0 0 .769 5 1.311 6.684 0 0-5.471-.948-6.6-.579a22.888 22.888 0 0 0-1.734-6.252c-.875-1.878-2.241-3.593-3.919-4.169 0 0-.543.21-.362 1s1.537 4.842.949 7-1.628 3.106-3.03 3.369a.685.685 0 0 1-.757-.354c-.268-.554.317-1.819.486-2.174a12.418 12.418 0 0 0 1-6.841c-.186-1.362-.5-1.676-.865-1.878a.794.794 0 0 0-1.17.825c.18 1 .814 3.79.362 5.473s-1.176 2.79-1.674 2.526c-.135-.473.182-1.157.136-1.736s-.679-.159-1.086.1-3.076 1.421-3.573.369.5-1.474.95-2a8.146 8.146 0 0 0 2.758-5 13.165 13.165 0 0 0-.032-2.621c-.073-1.023.484-1.326.484-1.326zm10.627 3.473a9.157 9.157 0 0 0 4.568.052c1.809-.684 2.487.475.769 2a3.183 3.183 0 0 1-2.134.446c-1.676-.174-3.743-1.094-3.791-1.814a.59.59 0 0 1 .587-.684zm-3.346 3.737s.994-.79 1.4 2.368.453 4.053-.045 4.316a.674.674 0 0 1-.769-.79 21.586 21.586 0 0 0-.09-3.368c-.135-1.1-.633-1.736-.633-2.21s.136-.316.136-.316zm-35.6-7.15s.378-1.611 1.677-1.513a7.05 7.05 0 0 1 2.894.684.871.871 0 0 0 .717.063 7.656 7.656 0 0 0 2.094 3.207c2.516 2.489 6.667.683 7.589-1.708a3.122 3.122 0 0 0-2.18-4.344 2.287 2.287 0 0 0-2.558 1.366c-.168.684.964.927.964.927s1.677.049 2.056.927-.714 1.66-2.1 2.148-4.528.147-4.319-4.489 4.025-5.467 5.955-5.467 2.013 3.417 2.013 3.417 1.342-.048 2.265-.048 2.265-.684 2.306 2.976-.587 4.685-1.3 5.564-2.14.635-2.643.585-.923-.1-.923.147a15.891 15.891 0 0 0 2.558 3.416 63.113 63.113 0 0 1 3.984 5.368c.209.293.881-.1.881-.683s-.335-2.733.586-9.956c.49-3.837.429-6.166-.895-8.193a9.221 9.221 0 0 0-6.024-3.909c-5.618-.927-9.057 1.561-10.021 4.392a9.729 9.729 0 0 0-.469 1.945c-.053.033-.106.068-.16.1a2.7 2.7 0 0 1-1.72.342c-.461-.1-1.97-1.026-3.1-.586a2.784 2.784 0 0 0-1.971 2.83c.168 1.366.5 1.561 1.007 1.416s.838-.927.838-.927zm16.027 8.914a52.511 52.511 0 0 0-5.473.244c-.631.219-1.146.626-.958 1.416s.865 1.062 1.731.979a12.261 12.261 0 0 1 1.964.028 1.142 1.142 0 0 1-.491.817c-.467.327-1.286 1.17-1.239 1.8s.866 1.034 1.918.191a9.642 9.642 0 0 0 2.549-3.539c.283-.957.375-1.734 0-1.932zm-8.095 5.105s-.261-.485-1.409-.668-3.34-.426-3.7-1.762-.261-4.007-2.036-4.007a2.034 2.034 0 0 0-1.931 2.611 11.892 11.892 0 0 0 1.565 1.761c.627.547.522 1.7.105 1.762a4.7 4.7 0 0 1-2.713-1.64 6.674 6.674 0 0 1-.731-2.672c0-.729 0-5.343-2.765-6.619s-4.644-.729-5.113 1.943a3.256 3.256 0 0 0 .191 1.8 13.974 13.974 0 0 0 .748 1.725s-.313.911-.679.972-.991.363-1.877-1.336a19.4 19.4 0 0 1-1.671-4.8 2.523 2.523 0 0 0-2.66-2.064c-1.148.121-1.722 1.275-2.4 1.579a1.886 1.886 0 0 1-2.5-.364c-1.044-1.032-2.452-2.975-3.444-3.218s-.887.972-.835 1.458 0 1.579-.417 1.64-.783-.182-1.252-.669a3.653 3.653 0 0 0-3.5-1.7c-2.3.182-3.026 1.214-4.174 1.518a3.83 3.83 0 0 1-1.513.182h-453.496a3.838 3.838 0 0 1-1.513-.182c-1.148-.3-1.879-1.335-4.174-1.518a3.654 3.654 0 0 0-3.5 1.7c-.469.486-.835.729-1.252.669s-.469-1.154-.417-1.64.157-1.7-.834-1.458-2.4 2.186-3.444 3.218a1.886 1.886 0 0 1-2.5.364c-.679-.3-1.252-1.458-2.4-1.579a2.525 2.525 0 0 0-2.661 2.064 19.449 19.449 0 0 1-1.669 4.8c-.888 1.7-1.513 1.4-1.879 1.336s-.679-.972-.679-.972a14.013 14.013 0 0 0 .749-1.725 3.277 3.277 0 0 0 .191-1.8c-.469-2.672-2.348-3.218-5.114-1.943s-2.765 5.89-2.765 6.619a6.656 6.656 0 0 1-.731 2.672 4.7 4.7 0 0 1-2.712 1.64c-.417-.061-.522-1.215.1-1.762a11.906 11.906 0 0 0 1.565-1.761 2.034 2.034 0 0 0-1.931-2.611c-1.775 0-1.669 2.672-2.035 4.007s-2.557 1.58-3.705 1.762-1.408.668-1.408.668 1.214.373 3.332.842c.963.213 2.029.448 3.4.675 4.382.729 10.957-2.428 13.253-4.068s10.486-6.74 14.609-8.318 5.792-.79 6.261-.3a14.015 14.015 0 0 1 1.617 2.185c.521.851 1.513.061 1.513.061 1.252-1.4 2.033-1.335 2.033-1.335h450.876s.781-.061 2.034 1.335c0 0 .992.79 1.513-.061a14.093 14.093 0 0 1 1.617-2.185c.469-.487 2.14-1.275 6.261.3s12.314 6.679 14.61 8.318 8.869 4.8 13.251 4.068c1.37-.227 2.437-.462 3.4-.675 2.118-.469 3.333-.842 3.333-.842zm-20.516-.2s-.057-.457-1.007-1.172-11.7-8.6-25.573-3.908h-448.729c-13.878-4.689-24.622 3.192-25.573 3.908s-1.008 1.172-1.008 1.172a1.778 1.778 0 0 0 .951-.2 39.259 39.259 0 0 1 5.876-1.693c3.581-.847 3.581.586 4.029 1.433a1.889 1.889 0 0 0 2.574.912c1.064-.586.448-1.693.5-2.54s.672-.781 1.119-.455 1.175 2.278 2.462 1.954 1.4-2.605 2.015-2.931.95.716 1.174 1.3.672 2.54 1.343 2.605 1.623-.391 2.518-1.693a3.84 3.84 0 0 1 1.735-1.563h449.276a3.841 3.841 0 0 1 1.735 1.563c.9 1.3 1.847 1.759 2.518 1.693s1.12-2.019 1.344-2.605.559-1.628 1.176-1.3.727 2.605 2.015 2.931 2.014-1.628 2.461-1.954 1.064-.391 1.12.455-.561 1.954.5 2.54a1.889 1.889 0 0 0 2.574-.912c.447-.847.447-2.28 4.029-1.433a39.216 39.216 0 0 1 5.876 1.693 1.778 1.778 0 0 0 .951.2zm43.7-46.732s-1.581.383-1.485 1.7a7.392 7.392 0 0 0 .67 2.939.909.909 0 0 1 .063.729 7.506 7.506 0 0 1 3.147 2.127c2.443 2.555.671 6.773-1.677 7.711a3.055 3.055 0 0 1-4.264-2.215 2.336 2.336 0 0 1 1.342-2.6c.671-.171.91.979.91.979s.049 1.7.91 2.088 1.629-.724 2.109-2.131.143-4.6-4.408-4.387-5.365 4.09-5.365 6.05 3.354 2.045 3.354 2.045-.047 1.363-.047 2.3-.672 2.3 2.921 2.343 4.6-.6 5.461-1.32.623-2.173.574-2.685-.1-.937.145-.937a15.641 15.641 0 0 1 3.352 2.6 62.242 62.242 0 0 0 5.269 4.047c.288.213-.095.895-.671.895s-2.682-.341-9.772.6c-3.766.5-6.053.434-8.042-.909a9.4 9.4 0 0 1-3.837-6.121c-.911-5.709 1.532-9.2 4.311-10.182a9.263 9.263 0 0 1 1.909-.477l.1-.163a2.808 2.808 0 0 0 .335-1.747c-.095-.468-1.006-2-.575-3.152a2.739 2.739 0 0 1 2.778-2c1.342.171 1.533.511 1.389 1.024s-.91.852-.91.852zm8.75 16.283a55.077 55.077 0 0 1 .24-5.56c.214-.642.615-1.166 1.389-.975s1.042.88.962 1.759a12.97 12.97 0 0 0 .026 2 1.109 1.109 0 0 0 .8-.5c.322-.475 1.149-1.306 1.764-1.259s1.015.88.188 1.949a9.518 9.518 0 0 1-3.474 2.59c-.94.287-1.7.379-1.9 0zm-575.357 2.48a.86.86 0 0 0-.183.715 1.809 1.809 0 0 0 1.142 1.563c1.543.485 3.379-1.793 2.252-4.749s-4.588-2.132-5.3-2.277a3.922 3.922 0 0 1-1.878-.63c-.376-.388-.5-.775-.417-1.938s.292-4.75-2.044-5.913-4.171.049-3.754 3.344c.12.951.824 1.132 1.272.967s.637-.676.563-1.305c-.124-1.066.5-1.648 1.21-1.26s1.376 1.6.417 3.2-5.465 6.349-6.048 7.85a3.28 3.28 0 0 0 .584 3.78 4.076 4.076 0 0 0 5.465-.484c1.876-2.035 3.045-4.119 5.589-4.506s3.17.242 3.045.921-.751.34-1.084.436-.835.29-.835.29zm-13.94 3.962a1.052 1.052 0 1 0 .9 1.041.978.978 0 0 0-.9-1.041zm-2.61 1.971a1.189 1.189 0 1 0 1.013 1.177 1.106 1.106 0 0 0-1.013-1.177zm-3.2 2.193a2.074 2.074 0 1 0 1.765 2.05 1.928 1.928 0 0 0-1.765-2.05zm-.131 5.963s-2.985-1.631-3.482-3.79a.9.9 0 0 0-.905-.79c-.814 0-3.437.106-5.155-1.157a7.581 7.581 0 0 1-2.94-4.053c-.814-1.947-1.357 2.211-.769 4.053s1.176 2 .632 2.21-1.176-1.21-1.763-1.367-.814 1.052.724 2.421 4.929.736 5.561.631 2.036-.211 1.991.421-2.578 1.631-7.642-.158a18.228 18.228 0 0 0-2.587-.765c-1.7-.276-.723 1.821.054 2.766a5.7 5.7 0 0 0 5.381 1.79c2.533-.369 3.527-.527 3.8-.264 0 0-1.4 4.473-9.271 5.632 0 0-.769 5-1.311 6.684 0 0 5.473-.948 6.6-.579a22.864 22.864 0 0 1 1.733-6.252c.876-1.878 2.241-3.593 3.92-4.169 0 0 .542.21.362 1s-1.539 4.842-.95 7 1.629 3.106 3.03 3.369a.685.685 0 0 0 .757-.354c.268-.554-.317-1.819-.486-2.174a12.419 12.419 0 0 1-1-6.841c.186-1.362.5-1.676.865-1.878a.8.8 0 0 1 1.171.825c-.181 1-.815 3.79-.362 5.473s1.176 2.79 1.673 2.526c.135-.473-.18-1.157-.135-1.736s.679-.159 1.086.1 3.075 1.421 3.572.369-.5-1.474-.949-2a8.141 8.141 0 0 1-2.759-5 13.247 13.247 0 0 1 .032-2.621c.073-1.023-.484-1.326-.484-1.326zm-10.627 3.473a9.154 9.154 0 0 1-4.568.052c-1.809-.684-2.487.475-.769 2a3.179 3.179 0 0 0 2.133.446c1.676-.174 3.743-1.094 3.79-1.814a.59.59 0 0 0-.587-.684zm3.347 3.737s-1-.79-1.4 2.368-.452 4.053.045 4.316a.674.674 0 0 0 .769-.79 21.646 21.646 0 0 1 .09-3.368c.136-1.1.634-1.736.634-2.21s-.135-.316-.135-.316zm35.6-7.15s-.378-1.611-1.677-1.513a7.053 7.053 0 0 0-2.893.684.872.872 0 0 1-.717.063 7.666 7.666 0 0 1-2.092 3.207c-2.517 2.489-6.668.683-7.591-1.708a3.122 3.122 0 0 1 2.18-4.344 2.287 2.287 0 0 1 2.558 1.366c.168.684-.964.927-.964.927s-1.677.049-2.055.927.713 1.66 2.1 2.148 4.529.147 4.319-4.489-4.025-5.467-5.955-5.467-2.013 3.417-2.013 3.417-1.342-.048-2.265-.048-2.263-.684-2.306 2.976.587 4.685 1.3 5.564 2.139.635 2.641.585.922-.1.922.147a15.888 15.888 0 0 1-2.558 3.416 63.629 63.629 0 0 0-3.984 5.368c-.209.293-.88-.1-.88-.683s.335-2.733-.587-9.956c-.49-3.837-.428-6.166.895-8.193a9.222 9.222 0 0 1 6.024-3.909c5.619-.927 9.057 1.561 10.023 4.392a9.9 9.9 0 0 1 .469 1.945c.052.033.1.068.159.1a2.692 2.692 0 0 0 1.719.342c.461-.1 1.971-1.026 3.1-.586a2.782 2.782 0 0 1 1.971 2.83c-.168 1.366-.5 1.561-1.007 1.416s-.838-.927-.838-.927zm-16.027 8.914a52.509 52.509 0 0 1 5.473.244c.632.219 1.147.626.959 1.416s-.866 1.062-1.731.979a12.262 12.262 0 0 0-1.964.028 1.142 1.142 0 0 0 .491.817c.468.327 1.287 1.17 1.239 1.8s-.865 1.034-1.918.191a9.655 9.655 0 0 1-2.549-3.539c-.283-.957-.375-1.734 0-1.932zm-15.093-41.826s1.582.383 1.486 1.7a7.374 7.374 0 0 1-.671 2.939.919.919 0 0 0-.063.729 7.5 7.5 0 0 0-3.146 2.127c-2.444 2.555-.672 6.773 1.676 7.711a3.054 3.054 0 0 0 4.263-2.215 2.333 2.333 0 0 0-1.342-2.6c-.67-.171-.91.979-.91.979s-.047 1.7-.91 2.088-1.629-.724-2.107-2.131-.145-4.6 4.407-4.387 5.365 4.09 5.365 6.05-3.354 2.045-3.354 2.045.049 1.363.049 2.3.67 2.3-2.922 2.343-4.6-.6-5.461-1.32-.623-2.173-.575-2.685.1-.937-.145-.937a15.669 15.669 0 0 0-3.352 2.6 62.2 62.2 0 0 1-5.269 4.047c-.288.213.1.895.671.895s2.683-.341 9.772.6c3.766.5 6.053.434 8.042-.909a9.4 9.4 0 0 0 3.838-6.121c.91-5.709-1.533-9.2-4.311-10.182a9.276 9.276 0 0 0-1.91-.477l-.1-.163a2.815 2.815 0 0 1-.335-1.747c.1-.468 1.006-2 .574-3.152a2.738 2.738 0 0 0-2.778-2c-1.341.171-1.533.511-1.39 1.024s.91.852.91.852zm-8.75 16.283a55.153 55.153 0 0 0-.24-5.56c-.214-.642-.614-1.166-1.39-.975s-1.042.88-.961 1.759a12.9 12.9 0 0 1-.028 2 1.109 1.109 0 0 1-.8-.5c-.32-.475-1.149-1.306-1.764-1.259s-1.015.88-.186 1.949a9.5 9.5 0 0 0 3.473 2.59c.94.287 1.7.379 1.9 0z" transform="translate(-1313.8 -1175.782)"/>
</svg>
