<svg xmlns="http://www.w3.org/2000/svg" viewBox="0 0 44.19 35.91"><defs><style>.cls-1{fill:#297cff;}.cls-2{fill:#29b5ff;}.cls-3{fill:#7fd3ff;}.cls-4{fill:#fff;}</style></defs><g id="레이어_2" data-name="레이어 2"><g id="레이어_1-2" data-name="레이어 1"><path class="cls-1" d="M44.19,33v2.94c-3.71,0-8.79-3.3-14.16-3.3a8.22,8.22,0,0,0-6.34,2.61h-1.6l-2-9.15Z"/><path class="cls-2" d="M22.09,26.07v9.15H20.5a8.24,8.24,0,0,0-6.34-2.61c-5.37,0-10.45,3.3-14.16,3.3V33Z"/><path class="cls-2" d="M44.19,3.3V33C40.48,33,35.4,29.66,30,29.66a8.19,8.19,0,0,0-6.34,2.62h-1.6L18.17,18.75,22.09,5.22A8,8,0,0,1,30,0C35.4,0,40.48,3.3,44.19,3.3Z"/><path class="cls-3" d="M22.09,5.22V32.28H20.5a8.21,8.21,0,0,0-6.34-2.62C8.79,29.66,3.71,33,0,33V3.3C3.7,3.3,8.79,0,14.16,0A8,8,0,0,1,22.09,5.22Z"/><circle id="타원_19" data-name="타원 19" class="cls-4" cx="16.28" cy="14.45" r="1.04"/><circle id="타원_20" data-name="타원 20" class="cls-4" cx="27.91" cy="14.45" r="1.04"/><path id="패스_62" data-name="패스 62" class="cls-4" d="M24.16,17.75a2,2,0,0,1-.34,2,2.52,2.52,0,0,1-2.05,1,2.61,2.61,0,0,1-2-1,2.12,2.12,0,0,1-.34-2,3,3,0,0,0,1.07,1.31,2.37,2.37,0,0,0,2.63,0A3.17,3.17,0,0,0,24.16,17.75Z"/></g></g></svg>