<svg xmlns="http://www.w3.org/2000/svg" xmlns:xlink="http://www.w3.org/1999/xlink" viewBox="0 0 290.6 215.8"><defs><style>.cls-1,.cls-10,.cls-11,.cls-12,.cls-2,.cls-3,.cls-4,.cls-5,.cls-6,.cls-7,.cls-8,.cls-9{fill-rule:evenodd;}.cls-1{fill:url(#무제_그라디언트_13);}.cls-2{fill:url(#무제_그라디언트_12);}.cls-3{fill:url(#무제_그라디언트_10);}.cls-4{fill:url(#무제_그라디언트_3);}.cls-5{fill:url(#무제_그라디언트_5);}.cls-6{fill:url(#무제_그라디언트_6);}.cls-14,.cls-7{fill:#c99938;}.cls-8{fill:url(#무제_그라디언트_7);}.cls-9{fill:url(#무제_그라디언트_8);}.cls-10{fill:url(#무제_그라디언트_9);}.cls-11{fill:url(#무제_그라디언트_2);}.cls-12{fill:url(#무제_그라디언트_2-2);}.cls-13{fill:#fff;}.cls-15{fill:#ffc85b;}</style><linearGradient id="무제_그라디언트_13" x1="-601.78" y1="653.69" x2="-601.78" y2="651.61" gradientTransform="matrix(104.88, 0, 0, -103.97, 63261.3, 67962.04)" gradientUnits="userSpaceOnUse"><stop offset="0" stop-color="#c93"/><stop offset="0.4" stop-color="#f4be52"/><stop offset="0.51" stop-color="#ffc85b"/><stop offset="1" stop-color="#cc9932"/></linearGradient><linearGradient id="무제_그라디언트_12" x1="-600.53" y1="652.85" x2="-600.53" y2="650.82" gradientTransform="matrix(82.4, 0, 0, -82.4, 49628.77, 53820.05)" gradientUnits="userSpaceOnUse"><stop offset="0" stop-color="#f6e886"/><stop offset="0.48" stop-color="#886e2a"/><stop offset="1" stop-color="#f6e986"/></linearGradient><linearGradient id="무제_그라디언트_10" x1="-600.36" y1="652.76" x2="-600.36" y2="650.68" gradientTransform="matrix(79.92, 0, 0, -79.92, 48123.39, 52191.15)" gradientUnits="userSpaceOnUse"><stop offset="0" stop-color="#735d1d"/><stop offset="0.48" stop-color="#facb6e"/><stop offset="1" stop-color="#735f35"/></linearGradient><linearGradient id="무제_그라디언트_3" x1="-600.2" y1="652.65" x2="-600.2" y2="650.58" gradientTransform="matrix(77.87, 0, 0, -77.87, 46883.74, 50850.54)" gradientUnits="userSpaceOnUse"><stop offset="0" stop-color="#c93"/><stop offset="0.5" stop-color="#ffc85b"/><stop offset="1" stop-color="#c93"/></linearGradient><linearGradient id="무제_그라디언트_5" x1="-597.76" y1="651.28" x2="-597.76" y2="649.21" gradientTransform="matrix(55.78, 0, 0, -58.4, 33486.43, 38082.33)" gradientUnits="userSpaceOnUse"><stop offset="0" stop-color="#745e1e"/><stop offset="0.5" stop-color="#e0cb62"/><stop offset="1" stop-color="#776120"/></linearGradient><linearGradient id="무제_그라디언트_6" x1="-597.34" y1="651.03" x2="-597.34" y2="648.95" gradientTransform="matrix(53.21, 0, 0, -55.83, 31929.11, 36394.97)" gradientUnits="userSpaceOnUse"><stop offset="0" stop-color="#dec859"/><stop offset="0.5" stop-color="#f3dc69"/><stop offset="1" stop-color="#e3aa36"/></linearGradient><linearGradient id="무제_그라디언트_7" x1="-592.92" y1="641.24" x2="-594.35" y2="640.72" gradientTransform="matrix(33.22, 0, 0, -24.59, 19756.94, 15950.58)" gradientUnits="userSpaceOnUse"><stop offset="0" stop-color="#2aaeff"/><stop offset="1" stop-color="#2980ff"/></linearGradient><linearGradient id="무제_그라디언트_8" x1="-589.47" y1="641.29" x2="-590.91" y2="640.77" gradientTransform="matrix(33.21, 0, 0, -24.59, 19858.17, 15950.58)" gradientUnits="userSpaceOnUse"><stop offset="0" stop-color="#2aaeff"/><stop offset="1" stop-color="#297fff"/></linearGradient><linearGradient id="무제_그라디언트_9" x1="-602.88" y1="640.79" x2="-601.03" y2="640.29" gradientTransform="matrix(108.5, 0, 0, -23.33, 65454.6, 15111.68)" gradientUnits="userSpaceOnUse"><stop offset="0" stop-color="#297fff"/><stop offset="0.53" stop-color="#2aaeff"/><stop offset="1" stop-color="#2982ff"/></linearGradient><linearGradient id="무제_그라디언트_2" x1="-561.34" y1="603.11" x2="-560.22" y2="601.68" gradientTransform="matrix(9.58, 0, 0, -6.82, 5432.12, 4301.93)" gradientUnits="userSpaceOnUse"><stop offset="0" stop-color="#080d33"/><stop offset="1" stop-color="#063971"/></linearGradient><linearGradient id="무제_그라디언트_2-2" x1="-552.14" y1="602.77" x2="-551.01" y2="601.34" gradientTransform="matrix(9.58, 0, 0, -6.82, 5517.28, 4301.93)" xlink:href="#무제_그라디언트_2"/></defs><g id="레이어_2" data-name="레이어 2"><g id="레이어_1-2" data-name="레이어 1"><g id="Layer_1"><g id="_876390448" data-name=" 876390448"><g id="그룹_48" data-name="그룹 48"><path id="패스_67" data-name="패스 67" class="cls-1" d="M151.71,17c1.8-7.43,5-16.51,9.63-15.79,4.86.74,4.91,11.14,4.26,18.89a66,66,0,0,1,4.16-8.54C171.22,9.1,174.38,4,178,5.15c4.67,1.5,3.1,11.77,1.23,19.33a68.14,68.14,0,0,1,5.46-7.8c1.83-2.23,5.77-6.76,9.13-5.08,4.4,2.21,1.18,12.14-1.85,19.3,5-6,12.47-13.34,16.45-10.48s-.75,12.17-4.88,18.79c5.93-5.12,14.43-11.25,17.91-7.82s-2.66,11.91-7.78,17.8c6.65-4.13,16-8.87,18.91-4.92s-4.5,11.33-10.5,16.36c7.24-3.06,17.23-6.28,19.48-1.93,1.71,3.32-2.83,7.24-5.09,9.08a65.09,65.09,0,0,1-7.83,5.44c7.61-1.89,18-3.5,19.5,1.12,1.17,3.55-4,6.72-6.45,8.19a68.05,68.05,0,0,1-8.6,4.15c7.81-.67,18.3-.67,19.06,4.15s-9.19,8.06-16.85,9.84c7.84.54,18.22,2.17,18.24,7.06s-10.38,6.54-18.21,7.09c7.65,1.76,17.64,5,16.88,9.8s-11.23,4.86-19.06,4.19a74.23,74.23,0,0,1,8.63,4.13c2.51,1.47,7.63,4.62,6.47,8.17-1.52,4.64-11.87,3-19.5,1.19a67.32,67.32,0,0,1,7.87,5.41c2.24,1.83,6.8,5.74,5.1,9.06-2.22,4.36-12.24,1.17-19.47-1.85,6,5,13.44,12.37,10.56,16.32s-12.28-.76-18.95-4.87c5.16,5.89,11.32,14.32,7.85,17.77s-12-2.65-18-7.75c4.17,6.62,8.93,15.9,5,18.77s-11.44-4.48-16.49-10.43c3.05,7.17,6.3,17.08,1.91,19.31-3.35,1.68-7.31-2.82-9.16-5.06a71.22,71.22,0,0,1-5.48-7.78c1.89,7.55,3.52,17.82-1.15,19.32-3.59,1.15-6.77-3.91-8.25-6.41a67.88,67.88,0,0,1-4.18-8.52c.67,7.74.65,18.14-4.21,18.89s-8.13-9.16-9.9-16.74c-.54,7.77-2.21,18.06-7.14,18.06-4.71,0-6.44-9.45-7.06-17.06-1.79,7.43-5,16.51-9.63,15.78-4.84-.74-4.89-11.13-4.26-18.88a65.55,65.55,0,0,1-4.15,8.56c-1.45,2.49-4.63,7.57-8.22,6.43-4.67-1.48-3.08-11.76-1.23-19.32a65.56,65.56,0,0,1-5.44,7.8c-1.85,2.24-5.78,6.78-9.14,5.09-4.39-2.2-1.19-12.13,1.86-19.32-5.05,6-12.47,13.36-16.47,10.5s.74-12.17,4.88-18.79c-5.91,5.12-14.41,11.25-17.91,7.8s2.66-11.89,7.8-17.78c-6.66,4.13-16,8.87-18.94,4.92s4.51-11.33,10.51-16.36c-7.24,3-17.23,6.27-19.48,1.93-1.72-3.32,2.84-7.24,5.09-9.08a67.29,67.29,0,0,1,7.84-5.45c-7.62,1.9-18,3.51-19.51-1.13-1.16-3.53,4-6.7,6.47-8.17a70.27,70.27,0,0,1,8.6-4.17c-7.81.69-18.3.69-19.08-4.13s9.21-8.08,16.86-9.84c-7.83-.55-18.23-2.18-18.23-7.06S46.18,101.53,54,101c-7.67-1.74-17.66-5-16.9-9.78S48.36,86.32,56.17,87a67.36,67.36,0,0,1-8.61-4.13c-2.52-1.45-7.64-4.6-6.49-8.15,1.52-4.63,11.89-3.06,19.5-1.19a66,66,0,0,1-7.85-5.43C50.46,66.26,45.9,62.35,47.6,59c2.24-4.33,12.24-1.15,19.49,1.87-6-5-13.45-12.38-10.56-16.32s12.26.74,18.93,4.85c-5.14-5.87-11.32-14.3-7.84-17.77s12,2.65,17.94,7.77c-4.15-6.62-8.92-15.92-4.94-18.77S92,25.12,97.11,31.07C94,23.9,90.81,14,95.18,11.76c3.37-1.7,7.31,2.82,9.16,5.06a63.84,63.84,0,0,1,5.48,7.79c-1.89-7.56-3.5-17.83,1.17-19.33,3.57-1.17,6.77,3.91,8.22,6.39a63.24,63.24,0,0,1,4.19,8.55c-.67-7.75-.63-18.14,4.21-18.89s8.13,9.13,9.9,16.73C138.07,10.28,139.74,0,144.65,0,149.36,0,151.1,9.42,151.71,17Z"/><path id="패스_68" data-name="패스 68" class="cls-2" d="M144.65,23.31c47.23,0,85.53,37.87,85.53,84.58a85.52,85.52,0,1,1-86.46-84.57Z"/><path id="패스_69" data-name="패스 69" class="cls-3" d="M144.64,25a82.94,82.94,0,1,1-83.86,82.93A82.94,82.94,0,0,1,144.64,25Z"/><path id="패스_70" data-name="패스 70" class="cls-4" d="M144.65,27.07a80.82,80.82,0,1,1-81.76,80.81A80.83,80.83,0,0,1,144.65,27.07Z"/><path id="패스_71" data-name="패스 71" class="cls-5" d="M144.62,47.28c32,0,57.89,27.14,57.89,60.61s-25.92,60.61-57.89,60.61-57.89-27.15-57.89-60.61S112.65,47.28,144.62,47.28Z"/><path id="패스_72" data-name="패스 72" class="cls-6" d="M144.62,50c30.51,0,55.23,26,55.23,57.93s-24.72,58-55.23,58-55.21-26-55.21-58S114.13,50,144.62,50Z"/><path id="패스_73" data-name="패스 73" class="cls-7" d="M143.93,35a2.8,2.8,0,1,1-2.82,2.81A2.83,2.83,0,0,1,143.93,35Zm1.4,140.24a2.81,2.81,0,1,1-2.81,2.83,2.8,2.8,0,0,1,2.81-2.83Zm7-139.86a2.8,2.8,0,1,1-3.12,2.49,2.85,2.85,0,0,1,3.12-2.5ZM137.6,174.84a2.8,2.8,0,1,1-3.12,2.49,2.85,2.85,0,0,1,3.12-2.49ZM159.85,36.52A2.78,2.78,0,0,1,162,39.79v0A2.84,2.84,0,0,1,158.69,42a2.8,2.8,0,1,1,1.16-5.48ZM130.62,173.77a2.8,2.8,0,0,1,2.19,3.29h0a2.85,2.85,0,0,1-3.37,2.18,2.8,2.8,0,0,1,1.08-5.5l.1,0ZM167.24,38.45a2.79,2.79,0,0,1,1.86,3.47v0a2.87,2.87,0,0,1-3.58,1.82,2.78,2.78,0,0,1-1.84-3.48l0,0a2.81,2.81,0,0,1,3.55-1.8ZM123.8,172a2.81,2.81,0,1,1-3.57,1.82A2.82,2.82,0,0,1,123.8,172ZM174.4,41.14a2.78,2.78,0,0,1,1.47,3.64s0,0,0,0a2.86,2.86,0,0,1-3.74,1.46,2.81,2.81,0,0,1-1.45-3.7h0a2.86,2.86,0,0,1,3.74-1.44ZM117.19,169.51a2.8,2.8,0,0,1,1.47,3.66v0a2.85,2.85,0,0,1-3.73,1.45,2.77,2.77,0,0,1-1.49-3.64l0-.05a2.87,2.87,0,0,1,3.73-1.44Zm64-125a2.75,2.75,0,0,1,1.1,3.74.16.16,0,0,1,0,.07,2.83,2.83,0,0,1-3.85,1,2.78,2.78,0,0,1-1.1-3.78l0,0a2.86,2.86,0,0,1,3.86-1ZM110.88,166.38a2.78,2.78,0,0,1,1.09,3.77s0,0,0,0a2.86,2.86,0,0,1-3.88,1.05,2.79,2.79,0,0,1-1-3.8v0a2.87,2.87,0,0,1,3.85-1.06Zm76.8-117.77a2.77,2.77,0,0,1,.69,3.86l0,.05a2.87,2.87,0,0,1-4,.63,2.76,2.76,0,0,1-.67-3.85l0,0a2.86,2.86,0,0,1,3.94-.65Zm-82.74,114a2.77,2.77,0,0,1,.67,3.87l0,0a2.85,2.85,0,0,1-3.94.66,2.79,2.79,0,0,1-.67-3.89l0,0a2.85,2.85,0,0,1,3.94-.65Zm88.73-109.3a2.78,2.78,0,0,1,.28,3.91l0,0a2.86,2.86,0,0,1-4,.24,2.78,2.78,0,0,1-.28-3.91l0,0a2.85,2.85,0,0,1,4-.26Zm-94.24,105a2.79,2.79,0,0,1,.25,3.94l0,0a2.85,2.85,0,0,1-4,.22,2.73,2.73,0,0,1-.31-3.87l.06-.07a2.86,2.86,0,0,1,4-.25Zm99.69-99.66a2.79,2.79,0,0,1-.12,3.92l-.05,0a2.85,2.85,0,0,1-4-.17,2.76,2.76,0,0,1,.12-3.91l.05-.05a2.85,2.85,0,0,1,4,.16ZM94.39,153.37a2.79,2.79,0,0,1-.16,3.94l0,0a2.82,2.82,0,0,1-4-.17,2.77,2.77,0,0,1,.11-3.91l.06-.05a2.87,2.87,0,0,1,4,.16ZM204,64.45a2.75,2.75,0,0,1-.52,3.85l-.07,0a2.83,2.83,0,0,1-3.94-.58,2.74,2.74,0,0,1,.52-3.85.18.18,0,0,1,.07-.05,2.82,2.82,0,0,1,3.92.57ZM89.89,148a2.78,2.78,0,0,1-.56,3.9l0,0a2.87,2.87,0,0,1-4-.59,2.78,2.78,0,0,1,.56-3.89l0,0a2.88,2.88,0,0,1,4,.56ZM208.23,70.73a2.78,2.78,0,0,1-.94,3.8l0,0a2.87,2.87,0,0,1-3.9-1,2.78,2.78,0,0,1,1-3.8l0,0a2.85,2.85,0,0,1,3.86,1ZM86,142.19A2.8,2.8,0,0,1,85,146l0,0a2.87,2.87,0,0,1-3.89-1,2.76,2.76,0,0,1,1-3.79l0,0a2.84,2.84,0,0,1,3.87,1Zm125.8-64.76a2.77,2.77,0,0,1-1.35,3.68l0,0a2.84,2.84,0,0,1-3.76-1.37,2.79,2.79,0,0,1,1.34-3.7l.05,0a2.86,2.86,0,0,1,3.75,1.38ZM82.71,136a2.8,2.8,0,0,1-1.39,3.71h0a2.83,2.83,0,0,1-3.73-1.37,2.77,2.77,0,0,1,1.32-3.68l.07,0A2.84,2.84,0,0,1,82.7,136Zm131.9-51.57A2.77,2.77,0,0,1,212.89,88l0,0a2.87,2.87,0,0,1-3.61-1.74A2.83,2.83,0,0,1,211,82.68h0a2.86,2.86,0,0,1,3.58,1.75ZM80.09,129.55a2.78,2.78,0,0,1-1.73,3.53h0a2.81,2.81,0,1,1-1.85-5.3h0a2.83,2.83,0,0,1,3.57,1.74ZM216.7,91.71A2.83,2.83,0,1,1,211.17,93a2.78,2.78,0,0,1,2.09-3.33h0a2.86,2.86,0,0,1,3.4,2.08ZM78.17,122.83a2.83,2.83,0,1,1-5.53,1.25h0a2.79,2.79,0,0,1,2.11-3.34h0a2.82,2.82,0,0,1,3.39,2.08ZM218,99.16a2.83,2.83,0,1,1-3.16-2.46h0A2.84,2.84,0,0,1,218,99.14ZM77,116a2.79,2.79,0,0,1-2.44,3.11h0a2.83,2.83,0,0,1-3.15-2.44,2.78,2.78,0,0,1,2.42-3.11h0A2.82,2.82,0,0,1,76.94,116Zm141.57-9.29a2.83,2.83,0,1,1-2.92-2.74h0a2.82,2.82,0,0,1,2.88,2.73ZM76.47,109a2.83,2.83,0,1,1-2.9-2.76h0A2.84,2.84,0,0,1,76.47,109Zm141.78,5.23a2.84,2.84,0,1,1-2.63-3h0a2.81,2.81,0,0,1,2.57,3ZM76.71,102a2.83,2.83,0,1,1-2.61-3h0a2.81,2.81,0,0,1,2.59,3Zm140.47,19.66a2.85,2.85,0,0,1-3.33,2.23,2.78,2.78,0,0,1-2.24-3.25v0a2.83,2.83,0,0,1,3.32-2.21,2.77,2.77,0,0,1,2.26,3.2.13.13,0,0,1,0,.06ZM77.69,95.11a2.86,2.86,0,0,1-3.32,2.23,2.8,2.8,0,1,1,3.32-2.23ZM215.33,129a2.84,2.84,0,0,1-3.53,1.87,2.78,2.78,0,0,1-1.9-3.44l0,0a2.84,2.84,0,0,1,3.53-1.87,2.78,2.78,0,0,1,1.91,3.43.64.64,0,0,1,0,.07Zm-136-40.67a2.84,2.84,0,0,1-3.53,1.86,2.8,2.8,0,0,1-1.91-3.46v0a2.84,2.84,0,0,1,3.53-1.86,2.79,2.79,0,0,1,1.94,3.43l0,.06Zm133.36,47.79a2.86,2.86,0,0,1-3.72,1.5,2.79,2.79,0,0,1-1.52-3.65v0a2.83,2.83,0,0,1,3.71-1.48,2.77,2.77,0,0,1,1.56,3.6.14.14,0,0,1,0,.06Zm-131-54.35A2.87,2.87,0,0,1,78,83.29a2.81,2.81,0,0,1-1.52-3.65l0,0a2.83,2.83,0,0,1,3.71-1.48,2.77,2.77,0,0,1,1.57,3.6l0,.06Zm127.68,61.13a2.88,2.88,0,0,1-3.86,1.13,2.81,2.81,0,0,1-1.14-3.78l0,0a2.86,2.86,0,0,1,3.86-1.11,2.79,2.79,0,0,1,1.13,3.77ZM84.85,75.5A2.84,2.84,0,0,1,81,76.6a2.76,2.76,0,0,1-1.16-3.73l0-.06a2.84,2.84,0,0,1,3.84-1.11h0a2.74,2.74,0,0,1,1.18,3.7.31.31,0,0,0-.05.1ZM205.4,149.36a2.83,2.83,0,0,1-3.94.71,2.78,2.78,0,0,1-.75-3.87l0,0a2.86,2.86,0,0,1,3.94-.71,2.77,2.77,0,0,1,.74,3.86s0,0,0,0ZM88.57,69.57a2.85,2.85,0,0,1-3.94.71,2.77,2.77,0,0,1-.75-3.86l0,0a2.88,2.88,0,0,1,3.95-.71,2.78,2.78,0,0,1,.76,3.85l0,0Zm112.16,85.77a2.85,2.85,0,0,1-4,.3,2.75,2.75,0,0,1-.37-3.87l.06-.07a2.85,2.85,0,0,1,4-.32,2.78,2.78,0,0,1,.36,3.91l-.06.06ZM92.88,64.05a2.88,2.88,0,0,1-4,.3,2.8,2.8,0,0,1-.3-3.95h0a2.9,2.9,0,0,1,4-.29,2.81,2.81,0,0,1,.31,4h0ZM195.46,160.8a2.86,2.86,0,0,1-4-.09,2.78,2.78,0,0,1,.07-3.92l0,0a2.86,2.86,0,0,1,4,.11,2.76,2.76,0,0,1,0,3.89l-.07.06ZM97.75,59a2.86,2.86,0,0,1-4-.09A2.76,2.76,0,0,1,93.8,55l0-.05a2.85,2.85,0,0,1,4,.11,2.75,2.75,0,0,1-.07,3.9l0,0Zm91.89,106.73a2.86,2.86,0,0,1-4-.53,2.76,2.76,0,0,1,.48-3.88l.05,0a2.84,2.84,0,0,1,4,.52,2.78,2.78,0,0,1-.48,3.9l0,0ZM103.13,54.46a2.9,2.9,0,0,1-4-.51A2.81,2.81,0,0,1,99.65,50h0a2.85,2.85,0,0,1,4,.53,2.77,2.77,0,0,1-.46,3.89l-.05,0ZM183.34,170a2.85,2.85,0,0,1-3.9-.92,2.77,2.77,0,0,1,.87-3.81l.06,0a2.86,2.86,0,0,1,3.9.91,2.8,2.8,0,0,1-.89,3.84l0,0ZM108.94,50.5a2.84,2.84,0,0,1-3.9-.91,2.76,2.76,0,0,1,.85-3.8l.09,0a2.84,2.84,0,0,1,3.89.92,2.78,2.78,0,0,1-.88,3.83l0,0Zm67.69,123.11a2.87,2.87,0,0,1-3.8-1.31,2.79,2.79,0,0,1,1.32-3.73h0a2.85,2.85,0,0,1,3.78,1.31,2.78,2.78,0,0,1-1.26,3.73l-.05,0ZM115.13,47.17a2.84,2.84,0,0,1-3.78-1.32,2.8,2.8,0,0,1,1.3-3.72h0a2.86,2.86,0,0,1,3.78,1.31,2.78,2.78,0,0,1-1.27,3.72l0,0Zm54.43,129.35a2.81,2.81,0,1,1-2-5.25l.07,0a2.86,2.86,0,0,1,3.63,1.69,2.78,2.78,0,0,1-1.65,3.57l-.06,0Zm-47.91-132A2.85,2.85,0,0,1,118,42.79a2.81,2.81,0,0,1,1.71-3.58,2.85,2.85,0,0,1,3.63,1.69,2.77,2.77,0,0,1-1.65,3.57l0,0ZM161.6,178.85a2.84,2.84,0,0,1-3.41-2.08,2.79,2.79,0,0,1,2.07-3.35h.05a2.8,2.8,0,0,1,1.43,5.41l-.14,0ZM129,42.35a2.87,2.87,0,0,1-3.42-2.07,2.8,2.8,0,0,1,2.09-3.37h0A2.85,2.85,0,0,1,131.12,39a2.81,2.81,0,0,1-2.1,3.37Zm24.91,137.87a2.8,2.8,0,1,1-.7-5.55,2.85,2.85,0,0,1,3.17,2.42,2.8,2.8,0,0,1-2.46,3.13h0ZM136.1,41.08A2.8,2.8,0,1,1,138.55,38a2.8,2.8,0,0,1-2.45,3.13Z"/><path id="패스_74" data-name="패스 74" class="cls-8" d="M0,178.11c22.88-6,45.9-10.75,69-14.92l-6.27,38.35q-27.39,5-54.78,12.69a113.91,113.91,0,0,1,12.54-23A88.15,88.15,0,0,0,0,178.11Z"/><path id="패스_75" data-name="패스 75" class="cls-9" d="M290.6,178.11c-22.87-6-45.88-10.75-69-14.92l6.28,38.35q27.39,5,54.76,12.69a113.15,113.15,0,0,0-12.54-23A88.8,88.8,0,0,1,290.6,178.11Z"/><path id="패스_76" data-name="패스 76" class="cls-10" d="M32.69,158.57l12.84,34.35c50.35-17.17,149.2-17.17,199.55,0l12.82-34.35C208,139.82,82.67,139.82,32.69,158.57Z"/><path id="패스_77" data-name="패스 77" class="cls-11" d="M66.26,187.38a172.87,172.87,0,0,0-19.89,5.54l17.57,8.61Z"/><path id="패스_78" data-name="패스 78" class="cls-12" d="M224.36,187.38a174,174,0,0,1,19.89,5.54l-17.58,8.61Z"/></g><path class="cls-13" d="M51.32,174.49v-10l2.91-.55a4.14,4.14,0,0,1,2.32.17,3.1,3.1,0,0,1,1.58,1.39,4.72,4.72,0,0,1,.55,2.37v.5a5.82,5.82,0,0,1-.56,2.59A5.09,5.09,0,0,1,56.53,173a5.6,5.6,0,0,1-2.37,1ZM53,165.61v7.18l1.12-.21a3.12,3.12,0,0,0,2.07-1.23,4.3,4.3,0,0,0,.74-2.57v-.56a3.3,3.3,0,0,0-.7-2.35,2.14,2.14,0,0,0-2-.48Z"/><path class="cls-13" d="M62.21,172.54l-1.71.29v-10l1.71-.29Z"/><path class="cls-13" d="M71.92,169.72a4.14,4.14,0,0,1-1.5,1.29,7,7,0,0,1-2.16.69,3.92,3.92,0,0,1-2.21-.22,3,3,0,0,1-1.47-1.39,5,5,0,0,1-.54-2.37v-.78a6,6,0,0,1,1.07-3.7,4.45,4.45,0,0,1,3-1.74,3.51,3.51,0,0,1,2.63.42,3,3,0,0,1,1.17,2.19l-1.69.25a1.6,1.6,0,0,0-2.08-1.47A2.46,2.46,0,0,0,66.38,164a4.84,4.84,0,0,0-.62,2.55v.77a3.59,3.59,0,0,0,.68,2.39,1.92,1.92,0,0,0,1.88.6,2.9,2.9,0,0,0,1.88-.89v-1.95l-2,.31v-1.31l3.76-.57Z"/><path class="cls-13" d="M75.63,170.47l-1.72.25v-10l1.72-.24Z"/><path class="cls-13" d="M84.73,160.72l-3.1.39v8.56l-1.71.22v-8.56c-1,.14-2,.27-3.07.42v-1.4q3.93-.54,7.88-1Z"/><path class="cls-13" d="M90.78,166.27l-3.85.43-.81,2.42-1.79.21,3.75-10.4,1.56-.17q1.88,4.77,3.76,9.55l-1.8.19C91.33,167.75,91.05,167,90.78,166.27Zm-3.37-1,2.89-.32-1.44-4Z"/><path class="cls-13" d="M96.26,166.64l4.53-.43v1.38q-3.14.28-6.26.6v-9.95l1.73-.18Z"/><path class="cls-13" d="M111.44,162.32l-4.1.29v3.06l4.79-.34v1.38q-3.27.22-6.52.48v-10c2.15-.17,4.31-.32,6.47-.47v1.4q-2.37.15-4.74.33v2.75l4.1-.29Z"/><path class="cls-13" d="M121.46,166.18l-1.73.09-4.45-6.82v7.07l-1.74.1v-10l1.74-.11,4.46,6.84v-7.08l1.72-.09Z"/><path class="cls-13" d="M127,163.78c.84-2.62,1.69-5.25,2.54-7.87l1.9,0q-1.8,5-3.59,10.06l-1.68.06q-1.8-4.9-3.59-9.8l1.9-.08Z"/><path class="cls-13" d="M134.44,165.74l-1.73,0v-10l1.73,0Z"/><path class="cls-13" d="M140.25,161.82l-1.94,0v3.83l-1.73,0v-10l3.51-.05a4,4,0,0,1,2.67.76,2.71,2.71,0,0,1,.94,2.23,2.83,2.83,0,0,1-.48,1.68,3.11,3.11,0,0,1-1.35,1l2.25,4.13v.09h-1.86Zm-1.94-1.37,1.79,0a2,2,0,0,0,1.37-.46,1.54,1.54,0,0,0,.5-1.21,1.6,1.6,0,0,0-.46-1.23,1.9,1.9,0,0,0-1.36-.44l-1.84,0Z"/><path class="cls-13" d="M153.33,161a6,6,0,0,1-.51,2.56,3.8,3.8,0,0,1-1.45,1.68,4.29,4.29,0,0,1-4.34,0,4,4,0,0,1-1.47-1.69A5.91,5.91,0,0,1,145,161v-.56a6.11,6.11,0,0,1,.51-2.57,3.82,3.82,0,0,1,3.63-2.28,4.13,4.13,0,0,1,2.17.6,3.9,3.9,0,0,1,1.46,1.71,6,6,0,0,1,.52,2.56Zm-1.74-.54a4.47,4.47,0,0,0-.62-2.55,2.11,2.11,0,0,0-1.79-.9,2.07,2.07,0,0,0-1.76.87,4.26,4.26,0,0,0-.65,2.48v.58a4.31,4.31,0,0,0,.65,2.54,2.05,2.05,0,0,0,1.78.9,2,2,0,0,0,1.77-.85,4.33,4.33,0,0,0,.62-2.55Z"/><path class="cls-13" d="M163,165.94l-1.74-.06c-1.48-2.4-3-4.8-4.45-7.18v7.06l-1.74,0v-9.95l1.74,0,4.47,7.22v-7.09L163,156Z"/><path class="cls-13" d="M167.29,156.16l2.88,7.76,2.88-7.47,2.24.13v9.95l-1.73-.1v-3.28c.06-1.46.12-2.92.17-4.38q-1.47,3.75-2.95,7.51l-1.24-.06q-1.47-3.91-2.94-7.8c.06,1.46.11,2.92.17,4.39v3.28L165,166v-10Z"/><path class="cls-13" d="M183.17,162.62l-4.09-.29v3.06c1.59.11,3.19.22,4.79.35v1.38c-2.18-.17-4.35-.32-6.53-.46v-10q3.24.21,6.48.46v1.4c-1.58-.13-3.16-.24-4.74-.35V161c1.36.09,2.73.19,4.09.3Z"/><path class="cls-13" d="M193.18,167.93l-1.73-.17L187,160.31v7.06l-1.73-.14v-9.95l1.73.14,4.46,7.48v-7.09l1.71.17Z"/><path class="cls-13" d="M202.22,160.32l-3.1-.34v8.56l-1.72-.19v-8.56l-3.07-.31v-1.39q3.94.39,7.89.84Z"/><path class="cls-13" d="M208.27,167.3c-1.28-.17-2.56-.33-3.85-.48l-.8,2.22-1.8-.2q1.88-4.77,3.76-9.52l1.55.2q1.88,5.21,3.76,10.43l-1.8-.23C208.82,168.91,208.55,168.1,208.27,167.3Zm-3.36-1.82,2.88.36-1.44-4.31Z"/><path class="cls-13" d="M213.74,169c1.5.2,3,.42,4.5.64V171q-3.11-.47-6.23-.88v-9.95l1.73.23Z"/><path class="cls-13" d="M221.38,171.45l-1.71-.26v-9.95l1.71.26Z"/><path class="cls-13" d="M228.67,170.07a1.42,1.42,0,0,0-.46-1.09,6.36,6.36,0,0,0-1.65-1,10.6,10.6,0,0,1-1.91-1.12,3.1,3.1,0,0,1-1.35-2.45,2,2,0,0,1,1-1.82,3.5,3.5,0,0,1,2.53-.37,4.69,4.69,0,0,1,1.84.69,3.87,3.87,0,0,1,1.27,1.31,3.17,3.17,0,0,1,.46,1.65l-1.71-.3a1.85,1.85,0,0,0-.48-1.3,2.37,2.37,0,0,0-1.39-.67,1.91,1.91,0,0,0-1.31.15,1,1,0,0,0-.47.93,1.33,1.33,0,0,0,.5,1,7.66,7.66,0,0,0,1.66,1,9.6,9.6,0,0,1,1.86,1.1,3.66,3.66,0,0,1,1,1.18,3,3,0,0,1,.33,1.4,2,2,0,0,1-.95,1.81,3.68,3.68,0,0,1-2.57.31,5.45,5.45,0,0,1-2-.73,4.18,4.18,0,0,1-1.41-1.32,3.19,3.19,0,0,1-.5-1.72l1.73.27a1.88,1.88,0,0,0,.55,1.4,3,3,0,0,0,1.6.73,1.94,1.94,0,0,0,1.35-.14A1,1,0,0,0,228.67,170.07Z"/><path class="cls-13" d="M239,165.94l-3.08-.58v8.56l-1.7-.31v-8.56c-1-.19-2-.37-3.05-.54v-1.4c2.61.46,5.22.93,7.83,1.43Z"/></g></g><polygon class="cls-14" points="144.38 119.72 146.01 118.49 146.28 118.55 146.16 119.12 146.16 119.72 144.38 119.72"/><polyline class="cls-15" points="146.16 119.13 146.16 119.13 146.16 119.13 146.16 119.13"/><path class="cls-14" d="M157.28,104.39a3.08,3.08,0,0,1-2.31-.86,2.9,2.9,0,0,1-.82-2.11,3,3,0,0,1,.82-2.14,3,3,0,0,1,2.31-.87,3.08,3.08,0,0,1,2.32.87,2.94,2.94,0,0,1,.84,2.14,2.87,2.87,0,0,1-.84,2.11A3.12,3.12,0,0,1,157.28,104.39Z"/><path class="cls-15" d="M157.28,99a2.53,2.53,0,0,1,1.9.69,2.4,2.4,0,0,1,.67,1.73,2.35,2.35,0,0,1-.67,1.7,2.57,2.57,0,0,1-1.9.68,2.5,2.5,0,0,1-1.88-.68,2.34,2.34,0,0,1-.66-1.7,2.39,2.39,0,0,1,.66-1.73,2.47,2.47,0,0,1,1.88-.69m0-1.18a3.62,3.62,0,0,0-2.74,1.05,3.53,3.53,0,0,0-1,2.55,3.57,3.57,0,0,0,1,2.53,4.15,4.15,0,0,0,5.47,0,3.52,3.52,0,0,0,1-2.53,3.62,3.62,0,0,0-1-2.56,3.69,3.69,0,0,0-2.75-1Z"/><polygon class="cls-14" points="117.14 105.29 116.95 105.31 116.89 104.66 117.54 104.65 118.39 104.65 118.1 105.45 117.14 105.29"/><path class="cls-15" d="M117.55,105.24v0h0m0-1.18h-1.29l.1,1.28,2.31.27.48-1.54Z"/><polygon class="cls-14" points="112.42 109.28 112.42 108.27 113.57 108.05 114.06 109.28 112.42 109.28"/><path class="cls-15" d="M113,108.27l.16.41H113v-.41m1.1-.44-2.29.44v1.6h3.1l-.64-1.63-.17-.41Z"/><path class="cls-14" d="M165.35,119.72a1.21,1.21,0,0,1-1.21-1.21v-9.22a1.21,1.21,0,0,1,1.14-1.2h3.38a1.22,1.22,0,0,1,1.18,1.2v9.22a1.21,1.21,0,0,1-1.21,1.21Z"/><path class="cls-15" d="M168.66,108.68a.61.61,0,0,1,.58.61v9.22a.61.61,0,0,1-.61.62h-3.28a.62.62,0,0,1-.62-.62v-9.22a.61.61,0,0,1,.58-.61h3.35m0-1.18h-3.46a1.8,1.8,0,0,0-1.7,1.79v9.22a1.8,1.8,0,0,0,1.81,1.8h3.28a1.8,1.8,0,0,0,1.8-1.8v-9.22a1.8,1.8,0,0,0-1.7-1.79Z"/><rect class="cls-14" x="154.42" y="108.09" width="5.7" height="11.63" rx="1.21"/><path class="cls-15" d="M158.91,108.68a.62.62,0,0,1,.62.62v9.21a.62.62,0,0,1-.62.62h-3.28a.61.61,0,0,1-.61-.62V109.3a.61.61,0,0,1,.61-.62h3.28m0-1.18h-3.28a1.81,1.81,0,0,0-1.8,1.8v9.21a1.8,1.8,0,0,0,1.8,1.8h3.28a1.8,1.8,0,0,0,1.81-1.8V109.3a1.81,1.81,0,0,0-1.81-1.8Z"/><path class="cls-14" d="M101.65,119.72a1.21,1.21,0,0,1-1.21-1.21V109.3a1.21,1.21,0,0,1,1.21-1.21H105a1.21,1.21,0,0,1,1.19,1v9.41a1.21,1.21,0,0,1-1.21,1.21Z"/><path class="cls-15" d="M105,108.68a.61.61,0,0,1,.6.52v9.31a.62.62,0,0,1-.62.62h-3.28a.61.61,0,0,1-.61-.62V109.3a.61.61,0,0,1,.61-.62H105m0-1.18h-3.3a1.81,1.81,0,0,0-1.8,1.8v9.21a1.8,1.8,0,0,0,1.8,1.8h3.28a1.8,1.8,0,0,0,1.81-1.8V109.1l0-.1a1.79,1.79,0,0,0-1.77-1.5Z"/><path class="cls-14" d="M113.59,119.72a1.21,1.21,0,0,1-1.16-1.2v-9.21a1.21,1.21,0,0,1,1.08-1.21H117l0,0a1.2,1.2,0,0,1,1,.86l0,.08v9.48a1.21,1.21,0,0,1-1.12,1.19h-3.41Z"/><path class="cls-15" d="M116.91,108.68h0a.61.61,0,0,1,.58.45v9.39a.61.61,0,0,1-.57.6h-3.37a.61.61,0,0,1-.57-.61h0v-9.21h0a.62.62,0,0,1,.62-.62h3.27m.24-1.18h-3.68l-.08,0a1.81,1.81,0,0,0-1.56,1.79v9.21a1.81,1.81,0,0,0,1.67,1.79h3.55a1.8,1.8,0,0,0,1.67-1.76l0-9.42V109l0-.16a1.78,1.78,0,0,0-1.42-1.27l-.08,0Z"/><path class="cls-14" d="M125.6,119.72a1.24,1.24,0,0,1-1.1-.82l-.09-.05V108.78h.16a1.22,1.22,0,0,1,1-.67h3.53l0,0a1.17,1.17,0,0,1,1,.71l0,.11v9.84l0,.08a1.2,1.2,0,0,1-1.06.87H125.6Z"/><path class="cls-15" d="M128.92,108.68h0a.6.6,0,0,1,.56.37v9.63a.61.61,0,0,1-.54.44h-3.36a.62.62,0,0,1-.58-.61s0,0,0,0v-9.15a0,0,0,0,0,0,0,.62.62,0,0,1,.62-.62h3.27m.25-1.18h-3.69l-.08,0a1.79,1.79,0,0,0-1.16.67l-.43,0v11l.23.11a1.81,1.81,0,0,0,1.48,1h3.54a1.76,1.76,0,0,0,1.59-1.29l0-.17v-10l-.1-.23a1.81,1.81,0,0,0-1.36-1l-.07,0Z"/><path class="cls-14" d="M146,105.84a1.19,1.19,0,0,1-1-.54h-.12l-.08-.49a2.66,2.66,0,0,0-.65-1.37,2.9,2.9,0,0,0-2.22-.75,3.39,3.39,0,0,0-2.16.64,2.48,2.48,0,0,0-.73,1.53l-.06.45h-.14a1.19,1.19,0,0,1-1,.52h-3.29a1.21,1.21,0,0,1-1.21-1.21,6.55,6.55,0,0,1,1.18-3.26,8,8,0,0,1,3.21-2.44,11.25,11.25,0,0,1,4.45-.87,9,9,0,0,1,6,1.92,6.7,6.7,0,0,1,2.31,4.59,1.23,1.23,0,0,1-1.21,1.27Z"/><path class="cls-15" d="M142.22,98.66a8.46,8.46,0,0,1,5.63,1.77,6.1,6.1,0,0,1,2.1,4.21.62.62,0,0,1-.62.6H146a.61.61,0,0,1-.61-.53h0a3.26,3.26,0,0,0-.8-1.68,3.46,3.46,0,0,0-2.65-.94,4,4,0,0,0-2.53.78,3,3,0,0,0-.94,1.9h0a.61.61,0,0,1-.6.47h-3.29a.61.61,0,0,1-.62-.61,6.11,6.11,0,0,1,1.06-2.9,7.22,7.22,0,0,1,3-2.25,10.4,10.4,0,0,1,4.21-.82m0-1.19a11.63,11.63,0,0,0-4.68.92,8.42,8.42,0,0,0-3.45,2.62,7.19,7.19,0,0,0-1.3,3.49v.14a1.8,1.8,0,0,0,1.8,1.79h3.29a1.82,1.82,0,0,0,1.22-.47h.41l.15-1a1.89,1.89,0,0,1,.5-1.14,2.83,2.83,0,0,1,1.8-.52,2.4,2.4,0,0,1,1.79.56,2.08,2.08,0,0,1,.49,1.08l.17,1h.32a1.8,1.8,0,0,0,1.3.55h3.3a1.81,1.81,0,0,0,1.8-1.78v-.14a7.24,7.24,0,0,0-2.52-5,9.56,9.56,0,0,0-6.39-2.06Z"/><path class="cls-14" d="M117.1,105.81a1,1,0,0,1-.25,0h-3.37a1.21,1.21,0,0,1-1.18-.93,2.26,2.26,0,0,0-1.72-1.82,4.34,4.34,0,0,0-1.18-.14,3.41,3.41,0,0,0-3.27,1.78,1.21,1.21,0,0,1-1.2,1.11h-3.28a1.22,1.22,0,0,1-1.21-1.21v-5a1.21,1.21,0,0,1,1.21-1.21h3a1.21,1.21,0,0,1,1.2,1v0l0,.29a7.51,7.51,0,0,1,3.22-1.52,9.88,9.88,0,0,1,2.07-.22,6.61,6.61,0,0,1,5,1.85,7.67,7.67,0,0,1,.52.64,8.34,8.34,0,0,1,6.19-2.49,6.85,6.85,0,0,1,5.39,2,7.83,7.83,0,0,1,1.74,4.47,1.23,1.23,0,0,1-1.21,1.27h-3.34a1.25,1.25,0,0,1-.71-.23l-.28.23-.2-1a2.52,2.52,0,0,0-.56-1.22,3.12,3.12,0,0,0-2.33-.7,3.92,3.92,0,0,0-2.38.67,2.67,2.67,0,0,0-1,1.42l-.49,2Z"/><path class="cls-15" d="M122.9,98.66a6.24,6.24,0,0,1,4.95,1.84,7.16,7.16,0,0,1,1.59,4.14.62.62,0,0,1-.62.6h-3.34a.6.6,0,0,1-.6-.49h0a3,3,0,0,0-.71-1.5,3.62,3.62,0,0,0-2.76-.9,4.46,4.46,0,0,0-2.76.82,3.2,3.2,0,0,0-1.22,1.69h0a.62.62,0,0,1-.56.36h-3.38a.61.61,0,0,1-.6-.47h0a2.82,2.82,0,0,0-2.14-2.25,4.93,4.93,0,0,0-1.33-.17,4,4,0,0,0-3.85,2.21v.07a.61.61,0,0,1-.62.61h-3.28a.61.61,0,0,1-.61-.61v-5a.61.61,0,0,1,.61-.62h3a.62.62,0,0,1,.62.62h0l.09,1.47a6.78,6.78,0,0,1,3.85-2.27,9.34,9.34,0,0,1,2-.2,6,6,0,0,1,4.54,1.66,5.29,5.29,0,0,1,.67.87h0c.08.12.13.25.2.37a7.55,7.55,0,0,1,6.27-2.91m0-1.19a9,9,0,0,0-6.13,2.2l-.15-.16a7.12,7.12,0,0,0-5.4-2,10.52,10.52,0,0,0-2.2.23,8.07,8.07,0,0,0-2.72,1.1,1.82,1.82,0,0,0-1.6-1h-3a1.81,1.81,0,0,0-1.8,1.81v5a1.81,1.81,0,0,0,1.8,1.8h3.28a1.8,1.8,0,0,0,1.78-1.52,2.85,2.85,0,0,1,2.69-1.37,4,4,0,0,1,1,.12,1.67,1.67,0,0,1,1.3,1.39l.18.77.26,0a1.77,1.77,0,0,0,1.32.57h3.08l.67,2.92,1.3-4h0v-.08a2.08,2.08,0,0,1,.86-1.15,3.35,3.35,0,0,1,2-.53,2.66,2.66,0,0,1,1.9.52,2,2,0,0,1,.41.93l.39,1.9.73-.58a1.75,1.75,0,0,0,.65.12h3.34a1.81,1.81,0,0,0,1.8-1.78v-.14a8.4,8.4,0,0,0-1.88-4.8,7.43,7.43,0,0,0-5.84-2.24Z"/><path class="cls-14" d="M140.36,120.09a9.28,9.28,0,0,1-4.11-.84,8.32,8.32,0,0,1-1.17-.69,4.61,4.61,0,0,1-2-3.84,5.14,5.14,0,0,1,2.48-4.81,11,11,0,0,1,5.54-1.77l1.06,0h7.23a1.21,1.21,0,0,1,1.21,1.21v5.18a10.86,10.86,0,0,0,.52,3.61l0,.09v0a.92.92,0,0,1,0,.29,1.21,1.21,0,0,1-1.21,1.21h-3.41a1.19,1.19,0,0,1-1.12-.77c-.06-.17-.12-.36-.17-.56a7.43,7.43,0,0,1-4,1.65C141,120.07,140.68,120.09,140.36,120.09Zm2.69-8a7.86,7.86,0,0,0-1.64.17l-.14,0a5.07,5.07,0,0,0-1.65.72c-.67.46-.71.89-.71,1a.68.68,0,0,0,.32.66,2.9,2.9,0,0,0,2,.59,4.65,4.65,0,0,0,2-.47l.2-.1a3.82,3.82,0,0,0,1.46-1.38v-1.22Z"/><path class="cls-15" d="M145.49,108.68h3.89a.62.62,0,0,1,.62.62v5.18a11.17,11.17,0,0,0,.55,3.81h0a.78.78,0,0,1,0,.21.62.62,0,0,1-.62.62h-3.41a.62.62,0,0,1-.57-.4,8.79,8.79,0,0,1-.35-1.48h0a6.94,6.94,0,0,1-4.4,2.19,8.14,8.14,0,0,1-.87,0,8.54,8.54,0,0,1-3.85-.79,9.29,9.29,0,0,1-1.09-.63,4,4,0,0,1-1.76-3.36,4.57,4.57,0,0,1,2.23-4.33,10.26,10.26,0,0,1,5.25-1.65c.33,0,.67,0,1-.06h3.32m-4.29,7.2a5.07,5.07,0,0,0,2.29-.54l.22-.11a4.41,4.41,0,0,0,1.78-1.75v-2h-2.44a8.68,8.68,0,0,0-1.77.18l-.14,0a5.52,5.52,0,0,0-1.86.8,1.85,1.85,0,0,0-1,1.51,1.18,1.18,0,0,0,.52,1.08,3.42,3.42,0,0,0,2.36.75m4.29-8.39h-3.35l-1.1,0a11.48,11.48,0,0,0-5.84,1.88,5.73,5.73,0,0,0-2.73,5.29,5.2,5.2,0,0,0,2.28,4.33,8,8,0,0,0,1.25.73,9.68,9.68,0,0,0,4.36.91,8.51,8.51,0,0,0,1-.06,8,8,0,0,0,3.61-1.28,1.8,1.8,0,0,0,1.59,1H150a1.8,1.8,0,0,0,1.8-1.8,1.51,1.51,0,0,0-.05-.42V118l-.06-.15a10.38,10.38,0,0,1-.47-3.4V109.3a1.81,1.81,0,0,0-1.81-1.8h-3.89Zm-6,6.53s0-.21.45-.5a4.33,4.33,0,0,1,1.46-.63l.12,0a7.28,7.28,0,0,1,1.51-.16h1.25v.45a3.27,3.27,0,0,1-1.16,1l-.18.09a3.86,3.86,0,0,1-1.76.41,2.46,2.46,0,0,1-1.57-.44.66.66,0,0,1-.12-.12V114Z"/><path class="cls-14" d="M165.35,105.84a1.21,1.21,0,0,1-1.21-1.21V91.21A1.21,1.21,0,0,1,165.33,90h3.31a1.22,1.22,0,0,1,1.2,1.21v13.42a1.21,1.21,0,0,1-1.21,1.21Z"/><path class="cls-15" d="M168.63,90.6a.61.61,0,0,1,.61.61v13.42a.61.61,0,0,1-.61.61h-3.28a.61.61,0,0,1-.62-.61V91.21a.61.61,0,0,1,.61-.61h3.29m0-1.19h-3.3a1.81,1.81,0,0,0-1.8,1.8v13.42a1.81,1.81,0,0,0,1.81,1.8h3.28a1.81,1.81,0,0,0,1.8-1.8V91.21a1.81,1.81,0,0,0-1.78-1.8Z"/><path class="cls-14" d="M176,105.84a1.18,1.18,0,0,1-1-.58l-2.84-4.85a1.2,1.2,0,0,1,1-1.82h3.45a1.19,1.19,0,0,1,1,.61l2.84,4.83a1.23,1.23,0,0,1,.16.6,1.21,1.21,0,0,1-1.21,1.21Z"/><path class="cls-15" d="M176.58,99.18a.64.64,0,0,1,.54.31l2.84,4.84a.61.61,0,0,1-.54.91H176a.6.6,0,0,1-.52-.29h0l-2.83-4.84h0a.65.65,0,0,1-.08-.31.62.62,0,0,1,.61-.62h3.44m0-1.18h-3.44a1.81,1.81,0,0,0-1.8,1.8,1.73,1.73,0,0,0,.25.91l2.83,4.84a1.78,1.78,0,0,0,1.54.88h3.46a1.8,1.8,0,0,0,1.8-1.8,1.9,1.9,0,0,0-.22-.87l-2.86-4.87a1.81,1.81,0,0,0-1.56-.89Z"/><path class="cls-14" d="M175.86,120.08a8.57,8.57,0,0,1-1.91-.25,1.23,1.23,0,0,1-.86-1.16V116.3a1.21,1.21,0,0,1,1.15-1.21h0l.3,0a3.83,3.83,0,0,0,2.19-.51,3.62,3.62,0,0,0,1.15-1.8l.55-1.48-.81-1.39a1.21,1.21,0,0,1,1-1.83h5.4a1.21,1.21,0,0,1,1.21,1.21,1.14,1.14,0,0,1-.07.41l-2.61,5C181.34,118.24,179.05,120.08,175.86,120.08Z"/><path class="cls-15" d="M184.09,108.68a.62.62,0,0,1,.62.62.78.78,0,0,1,0,.21l-2.57,4.9q-1.84,5.07-6.24,5.07a7.82,7.82,0,0,1-1.77-.23.61.61,0,0,1-.41-.58V116.3a.62.62,0,0,1,.62-.62h0l.23,0a4.33,4.33,0,0,0,2.57-.63,4.12,4.12,0,0,0,1.37-2.08l.65-1.73-1-1.64a.57.57,0,0,1-.09-.32.61.61,0,0,1,.61-.62h5.4m0-1.18h-5.41a1.81,1.81,0,0,0-1.8,1.8,1.77,1.77,0,0,0,.27.94l.66,1.13-.45,1.2a3.13,3.13,0,0,1-1,1.54,3.23,3.23,0,0,1-1.84.4h-.49a1.8,1.8,0,0,0-1.59,1.79v2.37a1.82,1.82,0,0,0,1.19,1.7l.06,0,.07,0a9.12,9.12,0,0,0,2,.26c2.37,0,5.57-1,7.33-5.78l2.53-4.83,0-.07,0-.07a1.66,1.66,0,0,0,.11-.62,1.8,1.8,0,0,0-1.79-1.8Z"/><path class="cls-14" d="M182.91,105.84a1.21,1.21,0,0,1-1.21-1.21,1.23,1.23,0,0,1,.19-.65l2.72-4.82a1.22,1.22,0,0,1,1-.57h3.44a1.21,1.21,0,0,1,1.07,1.77l-2.55,4.86a1.22,1.22,0,0,1-1.05.62Z"/><path class="cls-15" d="M189.07,99.18a.61.61,0,0,1,.61.62.53.53,0,0,1-.07.28h0L187.06,105a.6.6,0,0,1-.52.29h-3.63a.61.61,0,0,1-.52-.94l2.73-4.85a.62.62,0,0,1,.51-.27h3.44m0-1.18h-3.45a1.79,1.79,0,0,0-1.48.78l0,0,0,.05-2.72,4.82a1.81,1.81,0,0,0,1.54,2.74h3.63a1.8,1.8,0,0,0,1.53-.86l0,0,0,0,2.55-4.86a1.77,1.77,0,0,0,.21-.84,1.8,1.8,0,0,0-1.79-1.8Z"/></g></g></svg>