<svg xmlns="http://www.w3.org/2000/svg" viewBox="0 0 95.11 69.71"><defs><style>.cls-1{fill:#9d9d9c;}.cls-2{fill:#29b5ff;}.cls-3{fill:#297cff;}.cls-4,.cls-8{fill:#fff;}.cls-4{opacity:0.68;isolation:isolate;}.cls-5{fill:#cea275;}.cls-6{fill:#c69a71;}.cls-7{fill:#bc926f;}.cls-9{fill:#e0c0a6;}.cls-10{fill:#ededed;}</style></defs><g id="레이어_2" data-name="레이어 2"><g id="레이어_1-2" data-name="레이어 1"><g id="coffee-5009730"><g id="그룹_35" data-name="그룹 35"><ellipse id="타원_15" data-name="타원 15" class="cls-1" cx="64.94" cy="67.75" rx="3.74" ry="0.87"/><ellipse id="타원_16" data-name="타원 16" class="cls-1" cx="77.37" cy="64.37" rx="3.74" ry="0.87"/><ellipse id="타원_17" data-name="타원 17" class="cls-1" cx="91.62" cy="58.52" rx="2.87" ry="0.65"/><ellipse id="타원_18" data-name="타원 18" class="cls-1" cx="27.59" cy="65.02" rx="27.59" ry="4.69"/><path id="패스_47" data-name="패스 47" class="cls-2" d="M56.39,28.2V63.88c0,2.7-7.22,4.92-16.13,4.92s-16.13-2.19-16.13-4.92V28.2h0c.06,2.71,7.26,4.88,16.13,4.88s16.06-2.17,16.13-4.88Z"/><path id="패스_48" data-name="패스 48" class="cls-3" d="M40,68.8c-8.81,0-15.9-2.21-15.9-4.92V28.2h0c0,2.37,5.64,4.35,13,4.8Z"/><path id="패스_49" data-name="패스 49" class="cls-2" d="M56.39,28.18v.05c-.07,2.7-7.26,4.87-16.13,4.87s-16.07-2.17-16.13-4.87v-.05c0-2.7,7.22-4.92,16.13-4.92S56.39,25.46,56.39,28.18Z"/><path id="패스_66" data-name="패스 66" class="cls-4" d="M56.41,28.18v.05c-.06,2.7-7.26,4.87-16.13,4.87s-16.07-2.17-16.13-4.87v-.05c0-2.7,7.22-4.92,16.13-4.92S56.41,25.46,56.41,28.18Z"/><path id="패스_50" data-name="패스 50" class="cls-3" d="M53.69,28.16c0,.55-.49,1.06-1.33,1.52-2-1.26-6.8-2.15-12.4-2.15-5.32,0-9.9.8-12.07,2-.66-.4-1-.86-1-1.33,0-1.92,6-3.5,13.4-3.5S53.69,26.24,53.69,28.16Z"/><path id="패스_51" data-name="패스 51" class="cls-5" d="M52.33,29.68c-2.17,1.16-6.75,2-12.07,2-5.59,0-10.39-.89-12.39-2.16,1-1.29,2.28-1,3.92-1.62,2.68-1,7.43-.91,9.42-.57s4.26-.07,5.95.48C50.43,28.86,52,28.5,52.33,29.68Z"/><path id="패스_52" data-name="패스 52" class="cls-6" d="M50.22,30.51a38.63,38.63,0,0,1-9.94,1.14,37.67,37.67,0,0,1-10-1.19c1-.38,2-.73,3.08-1.07A7.35,7.35,0,0,1,35,29a14.08,14.08,0,0,1,2.81.27c2.2.28,4.45-.15,6.63.26.51.1,1,.23,1.52.29s1.16,0,1.75.09A9.37,9.37,0,0,1,50.22,30.51Z"/><path id="패스_53" data-name="패스 53" class="cls-2" d="M73.51,44.67A12.73,12.73,0,0,1,56.39,56.6V50.08a7,7,0,1,0,0-10.81V32.74A12.73,12.73,0,0,1,73.51,44.67Z"/><path id="패스_54" data-name="패스 54" class="cls-3" d="M60.44,32V37.7a7,7,0,0,0-4,1.57V32.74A13,13,0,0,1,60.44,32Z"/><path id="패스_55" data-name="패스 55" class="cls-3" d="M56.39,50.08a7.06,7.06,0,0,0,4,1.56v5.74a12.76,12.76,0,0,1-4-.78Z"/><path id="패스_56" data-name="패스 56" class="cls-6" d="M67.3,62.38c-2.89-.9-2.83,1.17-2.64,1.48-1,.63.19,3.17,1,3.78a2.48,2.48,0,0,0,4.12-1.18A4,4,0,0,0,67.3,62.38Zm.78,4.4a2.11,2.11,0,0,0-.25-.55,1.77,1.77,0,0,0-.34-.47,1.75,1.75,0,0,0-.91-.59,1.18,1.18,0,0,0-.27-.06l-.29,0a3.35,3.35,0,0,1-.62-.17,1.3,1.3,0,0,1-.52-.4,1,1,0,0,1-.19-.62,1,1,0,0,0,.33.47,1.23,1.23,0,0,0,.49.23,3.72,3.72,0,0,0,.57.08,4.62,4.62,0,0,1,.63.11,1.84,1.84,0,0,1,1,.8,1.81,1.81,0,0,1,.25.59,1.46,1.46,0,0,1,.08.62Z"/><path id="패스_57" data-name="패스 57" class="cls-7" d="M64.37,64.24c-.36,1,.61,2.87,1.26,3.4a2.45,2.45,0,0,0,3.76-.4C66.54,67.66,65.09,65.82,64.37,64.24Z"/><path id="패스_58" data-name="패스 58" class="cls-6" d="M82.19,63.06c-1.33,3.1-4.42,1.67-5.32.84-2.05-1.83-.76-2.47-.45-2.57a1.69,1.69,0,0,0,.36.23c.2.11.4.21.61.3a9.36,9.36,0,0,0,1.27.4c.42.1.87.21,1.29.27a9.51,9.51,0,0,0,1.31.11A11.54,11.54,0,0,0,80,62.21l-1.27-.35-1.26-.32-.64-.17-.4-.13c-.16-.31-.9-2,2-1.92C81.76,59.43,82.48,62.4,82.19,63.06Z"/><path id="패스_59" data-name="패스 59" class="cls-7" d="M81.53,64.14c-1.5,1.64-3.86.48-4.64-.22-1.67-1.49-1.12-2.19-.7-2.47C76.82,62.64,78.26,63.9,81.53,64.14Z"/><path id="패스_60" data-name="패스 60" class="cls-6" d="M95.11,57.25c-.13,2.11-2.24,1.92-2.94,1.63-1.58-.64-1-1.29-.8-1.42l.27.07a3,3,0,0,0,.43,0c.27,0,.55,0,.82,0a5.6,5.6,0,0,0,.82-.13,7.23,7.23,0,0,0,.8-.21,5.65,5.65,0,0,0-.82,0l-.8.07-.8.08-.4,0-.26,0c-.17-.14-1-1,.74-1.54A2.14,2.14,0,0,1,95.11,57.25Z"/><path id="패스_61" data-name="패스 61" class="cls-7" d="M94.94,58c-.53,1.29-2.18,1.12-2.77.87-1.29-.53-1.14-1-.93-1.29C91.85,58.16,93,58.58,94.94,58Z"/><circle id="타원_19" data-name="타원 19" class="cls-8" cx="32.64" cy="44.88" r="0.72"/><circle id="타원_20" data-name="타원 20" class="cls-8" cx="40.68" cy="44.88" r="0.72"/><path id="패스_62" data-name="패스 62" class="cls-8" d="M38.08,47.16a1.41,1.41,0,0,1-.23,1.42,1.72,1.72,0,0,1-1.41.67A1.79,1.79,0,0,1,35,48.58a1.48,1.48,0,0,1-.23-1.42,2,2,0,0,0,.74.91,1.63,1.63,0,0,0,1.82,0A2.1,2.1,0,0,0,38.08,47.16Z"/><path id="패스_63" data-name="패스 63" class="cls-4" d="M65.89,34.69c-.36-.11.21-.68.55-.7a3.35,3.35,0,0,1,2,1.27c.26.46-.73.59-.73.59a3.41,3.41,0,0,0-1.84-1.16"/><ellipse id="타원_21" data-name="타원 21" class="cls-9" cx="68.25" cy="63.5" rx="0.3" ry="0.65" transform="translate(-24.97 62.94) rotate(-42.59)"/><ellipse id="타원_22" data-name="타원 22" class="cls-9" cx="80.6" cy="60.48" rx="0.3" ry="0.65" transform="translate(-14.44 93.97) rotate(-56.29)"/><ellipse id="타원_23" data-name="타원 23" class="cls-9" cx="94.02" cy="56.26" rx="0.21" ry="0.46" transform="translate(3.84 118.5) rotate(-65.51)"/><path id="패스_64" data-name="패스 64" class="cls-10" d="M37.73.78a15.33,15.33,0,0,0-1.78,2A7.15,7.15,0,0,0,34.81,5a5.78,5.78,0,0,0-.12.57c0,.09,0,.19,0,.28v.27a4,4,0,0,0,.21,1.08,5.36,5.36,0,0,0,1.33,1.9l.46.44.27.25.26.28a7,7,0,0,1,.46.61,4.84,4.84,0,0,1,.36.72,4.35,4.35,0,0,1,.32,1.56,5.21,5.21,0,0,1-.26,1.52,7.35,7.35,0,0,1-1.49,2.43,13.17,13.17,0,0,1-1,.95,11.16,11.16,0,0,1-1.12.78A18.26,18.26,0,0,0,36,16.42a7.72,7.72,0,0,0,.95-2.3A3.36,3.36,0,0,0,37,13a3.06,3.06,0,0,0-.3-1l-.06-.13-.06-.12-.15-.24c-.13-.14-.21-.29-.36-.44l-.19-.21-.21-.19-.53-.47c-.17-.16-.34-.35-.51-.52l-.23-.3L34.18,9a6.24,6.24,0,0,1-.38-.66A2,2,0,0,1,33.63,8l-.13-.38a4.55,4.55,0,0,1-.19-1.56,4.84,4.84,0,0,1,.36-1.5,6.57,6.57,0,0,1,1.71-2.3A9.27,9.27,0,0,1,37.73.78Z"/><path id="패스_65" data-name="패스 65" class="cls-10" d="M46,0A14.47,14.47,0,0,0,44.1,2.55,9.73,9.73,0,0,0,43,5.36a7,7,0,0,0-.1,1.44,5.94,5.94,0,0,0,.23,1.39,7,7,0,0,0,1.39,2.49l.51.59.27.34.26.36.23.38c.06.13.15.25.21.4s.13.27.19.42.11.3.15.43a6.31,6.31,0,0,1,0,3.5,10.38,10.38,0,0,1-2.47,4.28c-.19.2-.38.41-.57.58s-.4.35-.61.52a17.61,17.61,0,0,0,1.56-2.74,10.92,10.92,0,0,0,.91-2.89,7,7,0,0,0,.06-1.44A6.27,6.27,0,0,0,45,14a5.14,5.14,0,0,0-.64-1.23l-.21-.29-.23-.28-.53-.61c-.09-.11-.17-.22-.25-.34l-.25-.35a3.75,3.75,0,0,0-.24-.36,3.59,3.59,0,0,1-.21-.38A5.87,5.87,0,0,1,42,9.39c0-.14-.1-.27-.14-.42l-.13-.42a7.06,7.06,0,0,1-.19-1.77,6.74,6.74,0,0,1,.29-1.73,8.15,8.15,0,0,1,1.65-2.94A9.08,9.08,0,0,1,44.67,1,7.94,7.94,0,0,1,46,0Z"/></g></g></g></g></svg>