<svg xmlns="http://www.w3.org/2000/svg" viewBox="0 0 66.64 40.21"><defs><style>.cls-1{fill:#aeb5ca;}.cls-2{fill:#c7cfe2;}.cls-3{fill:#e4eaf6;}.cls-4{fill:#d5dcec;}.cls-5{fill:#29b5ff;}.cls-6{fill:#707487;}.cls-7{fill:#d7deed;}.cls-8{fill:#fff;}</style></defs><g id="레이어_2" data-name="레이어 2"><g id="레이어_1-2" data-name="레이어 1"><path class="cls-1" d="M33.32,39.07H19.53V37.46a2.31,2.31,0,0,0-.38-1.27l-1.92-2.87H35.62l-1.91,2.87a2.24,2.24,0,0,0-.39,1.27Z"/><path class="cls-2" d="M36.77,40.21H16.09a1.14,1.14,0,0,1-1.15-1.14h0a1.14,1.14,0,0,1,1.15-1.15H36.77a1.15,1.15,0,0,1,1.15,1.15h0A1.15,1.15,0,0,1,36.77,40.21Z"/><path class="cls-3" d="M56.3,40.21h9.2A1.14,1.14,0,0,0,66.64,39a241.21,241.21,0,0,1,0-35.46A1.14,1.14,0,0,0,65.5,2.3H56.3a1.14,1.14,0,0,0-1.14,1.23,241.21,241.21,0,0,1,0,35.46A1.13,1.13,0,0,0,56.3,40.21Z"/><circle class="cls-4" cx="60.9" cy="31.02" r="3.45"/><circle class="cls-5" cx="60.9" cy="31.02" r="1.72"/><path class="cls-1" d="M65.49,2.3H56.3V1.15A1.14,1.14,0,0,1,57.45,0h6.89a1.14,1.14,0,0,1,1.15,1.15V2.3Z"/><path class="cls-1" d="M63.19,25.28h0a1.15,1.15,0,0,0,1.15-1.15V5.74A1.14,1.14,0,0,0,63.19,4.6h0A1.15,1.15,0,0,0,62,5.74V24.13A1.16,1.16,0,0,0,63.19,25.28Z"/><path class="cls-1" d="M58.6,8h0a1.15,1.15,0,0,0,1.15-1.15V5.74A1.15,1.15,0,0,0,58.6,4.6h0a1.14,1.14,0,0,0-1.15,1.14V6.89A1.14,1.14,0,0,0,58.6,8Z"/><path class="cls-4" d="M58.6,14.94h0a1.16,1.16,0,0,0,1.15-1.15V10.34A1.16,1.16,0,0,0,58.6,9.19h0a1.15,1.15,0,0,0-1.15,1.15v3.45A1.15,1.15,0,0,0,58.6,14.94Z"/><path class="cls-4" d="M58.6,21.83h0a1.15,1.15,0,0,0,1.15-1.15V17.23a1.15,1.15,0,0,0-1.15-1.14h0a1.14,1.14,0,0,0-1.15,1.14v3.45A1.14,1.14,0,0,0,58.6,21.83Z"/><path class="cls-4" d="M57.45,37.34h0a1.14,1.14,0,0,0,1.15,1.15h4.59a1.14,1.14,0,0,0,1.15-1.15h0a1.15,1.15,0,0,0-1.15-1.15H58.6A1.15,1.15,0,0,0,57.45,37.34Z"/><path class="cls-4" d="M58.6,25.28h0a1.16,1.16,0,0,0,1.15-1.15h0A1.15,1.15,0,0,0,58.6,23h0a1.14,1.14,0,0,0-1.15,1.15h0A1.15,1.15,0,0,0,58.6,25.28Z"/><circle class="cls-6" cx="63.19" cy="5.74" r="1.15"/><path class="cls-2" d="M2.3,34.47H50.55a2.3,2.3,0,0,0,2.3-2.3V4.6a2.3,2.3,0,0,0-2.3-2.3H2.3A2.3,2.3,0,0,0,0,4.6V32.17A2.3,2.3,0,0,0,2.3,34.47Z"/><path class="cls-5" d="M49.41,29.87h-46A1.14,1.14,0,0,1,2.3,28.72v-23A1.14,1.14,0,0,1,3.45,4.6h46a1.14,1.14,0,0,1,1.14,1.14v23A1.14,1.14,0,0,1,49.41,29.87Z"/><path class="cls-7" d="M29.87,34.47H23l.83-1.66a1.16,1.16,0,0,1,1-.64H28a1.15,1.15,0,0,1,1,.64Z"/><circle id="타원_19" data-name="타원 19" class="cls-8" cx="20.8" cy="14.73" r="1.04"/><circle id="타원_20" data-name="타원 20" class="cls-8" cx="32.43" cy="14.73" r="1.04"/><path id="패스_62" data-name="패스 62" class="cls-8" d="M28.68,18a2,2,0,0,1-.34,2.05,2.49,2.49,0,0,1-2,1,2.63,2.63,0,0,1-2.05-1A2.11,2.11,0,0,1,23.92,18,3,3,0,0,0,25,19.34a2.37,2.37,0,0,0,2.63,0A3.14,3.14,0,0,0,28.68,18Z"/></g></g></svg>