<svg xmlns="http://www.w3.org/2000/svg" viewBox="0 0 43.64 45.62"><defs><style>.cls-1{fill:#297cff;}.cls-2{fill:#7fd3ff;}.cls-3{fill:#29b5ff;}.cls-4{fill:#9fa0a0;}.cls-5{fill:#fff;}</style></defs><g id="레이어_2" data-name="레이어 2"><g id="레이어_1-2" data-name="레이어 1"><polygon class="cls-1" points="38.79 0.73 38.79 8.49 35.39 11.4 36.36 0.73 38.79 0.73"/><polygon class="cls-2" points="36.36 0.73 36.36 11.4 33.94 8.49 33.94 0.73 36.36 0.73"/><path class="cls-1" d="M41.87,19.29l-3.08-4.07,1.94,29.67h2.91V24.56A8.71,8.71,0,0,0,41.87,19.29Z"/><path class="cls-3" d="M40.73,24.56V44.89H29.08V24.56a8.71,8.71,0,0,1,1.77-5.27l3.09-4.07V8.49h4.85v6.73L40,19.29A18.36,18.36,0,0,1,40.73,24.56Z"/><polygon class="cls-4" points="43.64 28.23 43.64 39.88 40.73 39.88 36.85 33.57 40.73 28.23 43.64 28.23"/><rect class="cls-5" x="33.94" y="28.23" width="6.79" height="11.65"/><path class="cls-1" d="M38.79,1.46H33.94a.73.73,0,0,1,0-1.46h4.85a.73.73,0,0,1,.73.73A.73.73,0,0,1,38.79,1.46Z"/><rect class="cls-3" x="5.1" y="30.99" width="1.46" height="12.69"/><path class="cls-2" d="M.73,44.89H10.92C8.37,44.89,8.37,43,5.82,43S3.28,44.89.73,44.89Z"/><polygon class="cls-3" points="11.22 16.19 11.48 22.02 4.81 25.87 8.55 16.19 11.22 16.19"/><path class="cls-2" d="M8.65,22s0,1,0,1.91l-2.87,2L.17,22l.25-5.83H8.55Z"/><path class="cls-1" d="M11.64,25.64,11.48,22H8.65l-2.83,9.7a5.83,5.83,0,0,0,5.83-5.82A2.17,2.17,0,0,0,11.64,25.64Z"/><path class="cls-3" d="M8.73,25.64c0,.08,0,.17,0,.26,0,3.21-1.31,5.82-2.92,5.82A5.83,5.83,0,0,1,0,25.9a2.17,2.17,0,0,1,0-.26L.17,22H8.65S8.73,25.64,8.73,25.64Z"/><path class="cls-3" d="M10.78,45.62H.87a.73.73,0,1,1,0-1.45h9.91a.73.73,0,1,1,0,1.45Z"/><circle id="타원_19" data-name="타원 19" class="cls-5" cx="2.94" cy="25.42" r="0.33"/><circle id="타원_20" data-name="타원 20" class="cls-5" cx="6.68" cy="25.42" r="0.33"/><path id="패스_62" data-name="패스 62" class="cls-5" d="M5.47,26.48a.64.64,0,0,1-.1.65.81.81,0,0,1-.66.32.84.84,0,0,1-.66-.32.66.66,0,0,1-.11-.65,1,1,0,0,0,.35.42.76.76,0,0,0,.84,0A1,1,0,0,0,5.47,26.48Z"/><rect class="cls-3" x="19.26" y="30.99" width="1.46" height="12.69"/><path class="cls-2" d="M14.9,44.89H25.09C22.54,44.89,22.54,43,20,43S17.44,44.89,14.9,44.89Z"/><polygon class="cls-3" points="25.39 16.19 25.65 22.02 18.98 25.87 22.71 16.19 25.39 16.19"/><path class="cls-2" d="M22.82,22s0,1,0,1.91L20,25.9,14.34,22l.25-5.83h8.12Z"/><path class="cls-1" d="M25.81,25.64,25.65,22H22.82L20,31.72a5.83,5.83,0,0,0,5.83-5.82C25.82,25.81,25.81,25.72,25.81,25.64Z"/><path class="cls-3" d="M22.9,25.64v.26c0,3.21-1.3,5.82-2.91,5.82a5.83,5.83,0,0,1-5.82-5.82,2.17,2.17,0,0,1,0-.26L14.33,22h8.49S22.9,25.64,22.9,25.64Z"/><path class="cls-3" d="M25,45.62H15a.73.73,0,0,1,0-1.45H25a.73.73,0,1,1,0,1.45Z"/><circle id="타원_19-2" data-name="타원 19" class="cls-5" cx="17.11" cy="25.42" r="0.33"/><circle id="타원_20-2" data-name="타원 20" class="cls-5" cx="20.85" cy="25.42" r="0.33"/><path id="패스_62-2" data-name="패스 62" class="cls-5" d="M19.64,26.48a.62.62,0,0,1-.11.65.8.8,0,0,1-.65.32.84.84,0,0,1-.66-.32.66.66,0,0,1-.11-.65,1,1,0,0,0,.34.42.77.77,0,0,0,.85,0A1,1,0,0,0,19.64,26.48Z"/><circle id="타원_19-3" data-name="타원 19" class="cls-5" cx="33.04" cy="23.38" r="0.33"/><circle id="타원_20-3" data-name="타원 20" class="cls-5" cx="36.78" cy="23.38" r="0.33"/><path id="패스_62-3" data-name="패스 62" class="cls-5" d="M35.57,24.44a.66.66,0,0,1-.11.66.81.81,0,0,1-.66.31.83.83,0,0,1-.65-.31.69.69,0,0,1-.11-.66.94.94,0,0,0,.34.42.77.77,0,0,0,.85,0A1,1,0,0,0,35.57,24.44Z"/></g></g></svg>