<svg xmlns="http://www.w3.org/2000/svg" viewBox="0 0 40.01 56.17"><defs><style>.cls-1{fill:#297cff;}.cls-2{fill:#f4e0c1;}.cls-3{fill:#f8b62d;}.cls-4{fill:#f39800;}.cls-5{fill:#29b5ff;}.cls-6{fill:#7fd3ff;}.cls-7{fill:#fff;}</style></defs><g id="레이어_2" data-name="레이어 2"><g id="레이어_1-2" data-name="레이어 1"><g id="fried-chicken-2"><path class="cls-1" d="M40,23.09c.21-1.19-.43-2.17-1.45-2.17H1.76A1.64,1.64,0,0,0,.31,23h0l6,29.86H34l6-29.64C39.94,23.2,40,23.14,40,23.09Z"/><path class="cls-2" d="M22,0a2.06,2.06,0,0,0-1.88,1.22,2.07,2.07,0,1,0-1.89,2.92V16.85H22V4.14A2.07,2.07,0,1,0,22,0Z"/><path class="cls-3" d="M22.07,11.12H18.23c-3.9,2.16-6.84,10.36-6.84,14.49a8.75,8.75,0,1,0,17.49,0C28.89,21.48,26,13.28,22.07,11.12Z"/><path class="cls-4" d="M22.07,11.12H20.15V34.36a8.75,8.75,0,0,0,8.74-8.75C28.89,21.48,26,13.28,22.07,11.12Z"/><path class="cls-2" d="M36.31,6.63a2.05,2.05,0,0,0-2.18.5,2.07,2.07,0,1,0-2.77,2.1L27,21.14l3.54,1.29,4.34-11.94a2.07,2.07,0,0,0,1.4-3.86Z"/><path class="cls-3" d="M32.57,17.07,29,15.76c-4.4.69-9.94,7.38-11.37,11.3A8.75,8.75,0,0,0,34,33C35.46,29.11,35.51,20.44,32.57,17.07Z"/><path class="cls-4" d="M32.57,17.07l-1.8-.65L22.82,38.29A8.74,8.74,0,0,0,34,33.06v0C35.46,29.11,35.51,20.44,32.57,17.07Z"/><path class="cls-2" d="M7.1,5.4A2.08,2.08,0,0,0,5.74,7.2,2.07,2.07,0,1,0,5,10.59L9.5,22.46,13,21.13,8.53,9.25A2.07,2.07,0,0,0,7.07,5.38Z"/><path class="cls-3" d="M11.05,15.77,7.46,17.13c-2.89,3.39-2.72,12.07-1.24,16a8.74,8.74,0,1,0,16.35-6.19C21.09,23,15.47,16.4,11.05,15.77Z"/><path class="cls-4" d="M11.05,15.77l-1.81.68,8.24,21.76A8.74,8.74,0,0,0,22.59,27l0,0C21.09,23,15.47,16.4,11.05,15.77Z"/><path class="cls-5" d="M39.65,26.37c.21-1.19-.44-2.17-1.46-2.17a2.42,2.42,0,0,0-2.14,2.11h0a1.7,1.7,0,0,0-1.52-2.11,2.32,2.32,0,0,0-2.07,2.11h0a1.77,1.77,0,0,0-1.59-2.11,2.24,2.24,0,0,0-2,2.11h0a1.83,1.83,0,0,0-1.54-2.1h-.12a2.14,2.14,0,0,0-1.94,2.11h0A1.9,1.9,0,0,0,23.6,24.2h-.05a2,2,0,0,0-1.86,2.11h0a2,2,0,0,0-1.8-2.11A2,2,0,0,0,18,26.27v0h0a2.06,2.06,0,0,0-1.87-2.1,1.9,1.9,0,0,0-1.74,2.05v0h0a2.13,2.13,0,0,0-1.94-2.1,1.81,1.81,0,0,0-1.67,2c0,.05,0,.09,0,.13h0a2.22,2.22,0,0,0-2-2.1,1.76,1.76,0,0,0-1.59,2.1h0a2.32,2.32,0,0,0-2.08-2.1,1.7,1.7,0,0,0-1.52,2.1h0a2.42,2.42,0,0,0-2.14-2.1A1.64,1.64,0,0,0,0,26.31H0L6,56.17H33.66l6-29.64A.53.53,0,0,1,39.65,26.37Z"/><path class="cls-6" d="M20.15,30.78C13,30.78,7.48,34.5,7.48,39.24S13,47.7,20.15,47.7,32.81,44,32.81,39.24,27.25,30.78,20.15,30.78Z"/><circle id="타원_19" data-name="타원 19" class="cls-7" cx="15.89" cy="38.13" r="0.76"/><circle id="타원_20" data-name="타원 20" class="cls-7" cx="24.37" cy="38.13" r="0.76"/><path id="패스_62" data-name="패스 62" class="cls-7" d="M21.64,40.54A1.5,1.5,0,0,1,21.39,42a1.81,1.81,0,0,1-1.49.71A1.88,1.88,0,0,1,18.41,42a1.54,1.54,0,0,1-.25-1.49,2.15,2.15,0,0,0,.78,1,1.76,1.76,0,0,0,1.92,0A2.36,2.36,0,0,0,21.64,40.54Z"/></g></g></g></svg>