<svg xmlns="http://www.w3.org/2000/svg" xmlns:xlink="http://www.w3.org/1999/xlink" viewBox="0 0 56.7 40.76"><defs><style>.cls-1{fill:#2aaeff;}.cls-2{fill:#fff;}.cls-3{fill:#35ff57;}.cls-4{fill:#29b5ff;}.cls-5{fill:url(#무제_그라디언트_17);}.cls-6{fill:url(#무제_그라디언트_17-2);}</style><linearGradient id="무제_그라디언트_17" x1="30.19" y1="6.56" x2="56.55" y2="6.56" gradientUnits="userSpaceOnUse"><stop offset="0" stop-color="#297cff"/><stop offset="1" stop-color="#29b5ff"/></linearGradient><linearGradient id="무제_그라디언트_17-2" x1="8.73" y1="6.56" x2="32.72" y2="6.56" xlink:href="#무제_그라디언트_17"/></defs><g id="레이어_2" data-name="레이어 2"><g id="레이어_1-2" data-name="레이어 1"><path class="cls-1" d="M29.31,3.31A10.74,10.74,0,0,1,30.64,5,9.57,9.57,0,0,0,29.31,3.31Z"/><path class="cls-2" d="M32.86,13.15v0h0Z"/><polygon class="cls-2" points="23.86 19.13 23.86 19.96 24.19 19.96 23.86 19.13"/><path class="cls-3" d="M30.64,5l0,0Z"/><path class="cls-4" d="M9,11.89v-.13L8.73,4.92,8.55,2s0,0,0,0A1.23,1.23,0,0,0,7.3.74H1.23A1.23,1.23,0,0,0,0,2v9.92a1.23,1.23,0,0,0,1.23,1.22H7.76A1.23,1.23,0,0,0,9,11.89Z"/><path class="cls-4" d="M9,39.53V21A1.21,1.21,0,0,0,7.8,20H1.23A1.23,1.23,0,0,0,0,21.19V39.53a1.23,1.23,0,0,0,1.23,1.23H7.76A1.23,1.23,0,0,0,9,39.53Z"/><path class="cls-4" d="M25.09,20a1.23,1.23,0,0,0-1.23,1.23h0V39.55h0A1.21,1.21,0,0,0,25,40.76h6.71a1.22,1.22,0,0,0,1.13-1.19l0-18.71A1.21,1.21,0,0,0,31.66,20a.06.06,0,0,1-.05,0H25.12Z"/><path class="cls-1" d="M56.7,39.88V20.71A1.22,1.22,0,0,0,55.58,20l0,0H49l0,0a1.23,1.23,0,0,0-1.23,1.23s0,.06-.07.06V39.48s.07,0,.07.07a1.22,1.22,0,0,0,1.14,1.21h6.71A1.2,1.2,0,0,0,56.7,39.88Z"/><path class="cls-5" d="M32.62,12.39A6.32,6.32,0,0,1,35.05,9a8.83,8.83,0,0,1,5.49-1.62q3.84,0,5.51,1.78a6.05,6.05,0,0,1,1.41,3s0,0,0,0a1.22,1.22,0,0,0,1.2,1h6.66a1.22,1.22,0,0,0,1.22-1.21,14.36,14.36,0,0,0-3.16-8.24Q50.15,0,43.53,0c-5.27,0-9.84,2-12.75,6.11A12.22,12.22,0,0,0,30.19,5a11,11,0,0,1,1.25,2.89"/><path class="cls-6" d="M23.58,12.17a1.21,1.21,0,0,0,1.19.94H31.5a1.22,1.22,0,0,0,1.22-1.22v0A30.75,30.75,0,0,0,31.91,8a11.25,11.25,0,0,0-1.25-2.9l0,0a10.74,10.74,0,0,0-1.33-1.73Q26.15,0,20.27,0A18.4,18.4,0,0,0,16.4.39,13.6,13.6,0,0,0,8.73,4.92L9,11.76q2.25-4.39,7.65-4.4a10.32,10.32,0,0,1,2.66.32,5.66,5.66,0,0,1,4.27,4.49Z"/></g></g></svg>