<svg xmlns="http://www.w3.org/2000/svg" viewBox="0 0 46.05 46.05"><defs><style>.cls-1{fill:#29b5ff;}.cls-2{fill:#297cff;}.cls-3{fill:#fff;fill-rule:evenodd;}</style></defs><g id="레이어_2" data-name="레이어 2"><g id="레이어_1-2" data-name="레이어 1"><path class="cls-1" d="M0,23a23,23,0,1,1,23,23A23,23,0,0,1,0,23Z"/><path class="cls-2" d="M26.65,45.77l-6.41-6.3,2.7.21,0-2.35-6.08-5.77-.79-8.09,7,8.14.48-25.45L45.49,28.09A23.08,23.08,0,0,1,26.65,45.77Z"/><path class="cls-3" d="M17.28,16.37V27.21a5.75,5.75,0,1,0,11.49,0V12a5.75,5.75,0,0,0-11.49,0v.09H19.9a.38.38,0,0,1,.38.39h0v.09a.38.38,0,0,1-.38.38H17.28v.86H19.9a.39.39,0,0,1,.38.39h0v.09a.38.38,0,0,1-.38.38H17.28v.86H19.9a.39.39,0,0,1,.38.39h0V16a.39.39,0,0,1-.38.39ZM23.46,39V34.64a7.45,7.45,0,0,0,7-7.43V24a.54.54,0,0,0-.54-.53h0a.53.53,0,0,0-.53.53v3.21a6.37,6.37,0,1,1-12.74,0V24a.54.54,0,0,0-.54-.53h0a.54.54,0,0,0-.54.53v3.21a7.45,7.45,0,0,0,7,7.43V39H20.67a.38.38,0,0,0-.39.38v.1a.38.38,0,0,0,.39.38h4.72a.38.38,0,0,0,.38-.38v-.1a.38.38,0,0,0-.38-.38Z"/><circle id="타원_19" data-name="타원 19" class="cls-1" cx="19.57" cy="20.07" r="0.62"/><circle id="타원_20" data-name="타원 20" class="cls-1" cx="26.48" cy="20.07" r="0.62"/><path id="패스_62" data-name="패스 62" class="cls-1" d="M24.25,22a1.23,1.23,0,0,1-.2,1.22,1.51,1.51,0,0,1-1.21.58,1.56,1.56,0,0,1-1.22-.58,1.28,1.28,0,0,1-.2-1.22,1.68,1.68,0,0,0,.64.78,1.37,1.37,0,0,0,1.55,0A1.82,1.82,0,0,0,24.25,22Z"/></g></g></svg>